<svg id="Capa_1" enable-background="new 0 0 501 501" height="512" viewBox="0 0 501 501" width="512" xmlns="http://www.w3.org/2000/svg"><g><path d="m495.5 256c0 128.576-99.045 234.02-225.001 244.195-6.596.533-13.266-9.529-19.999-9.529s-13.403 10.062-19.999 9.529c-125.956-10.175-225.001-115.619-225.001-244.195 0-135.31 109.69-245 245-245s245 109.69 245 245z" fill="#003278"/><path d="m495.5 256c0 8.379-.421 16.66-1.242 24.822-29.06 81.134-106.63 139.178-197.758 139.178-115.98 0-210-94.02-210-210 0-91.128 58.044-168.698 139.178-197.758 8.162-.821 16.443-1.242 24.822-1.242 135.31 0 245 109.69 245 245z" fill="#2740af"/><path d="m288.18 178.235-.288-.288c-1.895-1.895-1.959-4.948-.144-6.921l155.857-169.411c1.925-2.092 5.205-2.161 7.215-.15l13.841 13.841c2.01 2.01 1.942 5.29-.15 7.215l-169.41 155.858c-1.973 1.815-5.026 1.751-6.921-.144z" fill="#f52c2c"/><path d="m479.429 127.208-190.161 190.161c7.021 3.444 11.232 7.841 11.232 12.631 0 8.201-12.341 15.25-30 18.336v151.859c-6.596.533-13.266.805-20 .805s-13.404-.272-20-.805v-151.859c-17.659-3.086-30-10.135-30-18.336 0-4.79 4.211-9.187 11.232-12.631l-190.161-190.161c-6.3-6.3-1.838-17.071 7.071-17.071h443.716c8.909 0 13.371 10.771 7.071 17.071z" fill="#81bdfd"/><path d="m270.5 380v120.195c-6.596.533-13.266.805-20 .805v-121c0-5.523 4.477-10 10-10s10 4.477 10 10zm16.699-63.583c-13.278-5.737-28.452-5.737-41.73 0-8.256 3.567-13.301 8.339-13.301 13.583 0 8.295 12.625 15.41 30.608 18.44 2.352.396 4.766.396 7.117 0 17.983-3.03 30.608-10.145 30.608-18.44-.001-5.244-5.047-10.017-13.302-13.583zm185.159-206.28h-384.363l131.558 131.558c40.148 40.148 105.241 40.148 145.39 0l114.487-114.488c6.298-6.299 1.836-17.07-7.072-17.07z" fill="#acd1fd"/><path d="m287.891 177.947c-1.895-1.895-1.959-4.948-.144-6.921l56.018-60.888h25.512l-74.176 68.242c-1.973 1.815-5.025 1.751-6.921-.144z" fill="#c92c2c"/><path d="m366.63 187.24c5.059-2.144 9.371 4.254 5.487 8.139l-107.475 107.474c-7.81 7.811-20.474 7.811-28.284 0l-123.539-123.539c-2.349-2.349-1.797-6.292 1.106-7.906l4.908-2.728c21.546-11.977 46.919-15.064 70.709-8.602l115.42 31.35c20.445 5.553 42.162 4.078 61.668-4.188z" fill="#d80d80"/><path d="m196.058 191.428 115.42-31.35c23.79-6.462 49.162-3.375 70.709 8.602l4.908 2.728c2.903 1.614 3.455 5.557 1.106 7.906l-123.538 123.539c-7.81 7.811-20.474 7.811-28.284 0l-123.524-123.52c-3.885-3.885.428-10.283 5.487-8.139 19.505 8.267 57.272 25.787 77.716 20.234z" fill="#fd2aa7"/><path d="m345.039 183.454c6.655 9.037-32.165 47.368-51.508 64.297-15.302 13.392-31.49 27.559-36.877 23.687-6.886-4.949 3.673-39.515 27.075-62.419 22.396-21.919 56.068-32.683 61.31-25.565z" fill="#fd73c4"/><path d="m387.784 76.716c11.716 11.716 8.55 33.877-7.071 49.497s-37.782 18.787-49.497 7.071-8.55-33.877 7.071-49.497 37.782-18.787 49.497-7.071z" fill="#f19b0b"/><path d="m387.784 76.716c11.716 11.716 8.55 33.876-7.071 49.497-6.004 6.004-12.973 10.167-19.944 12.354-3.458-1.16-6.586-3.03-9.196-5.64-11.716-11.716-8.55-33.876 7.071-49.497 6.004-6.004 12.973-10.167 19.944-12.354 3.459 1.16 6.587 3.03 9.196 5.64z" fill="#f5c02c"/><path d="m384.5 95c0 8.284-4.477 15-10 15s-10-6.716-10-15 4.477-15 10-15 10 6.716 10 15z" fill="#fdf061"/><path d="m332.712 363.955 10.59 19.363c.184.336.459.612.795.795l19.363 10.59c1.387.759 1.387 2.751 0 3.509l-19.363 10.59c-.336.184-.611.459-.795.795l-10.59 19.363c-.759 1.387-2.751 1.387-3.509 0l-10.59-19.363c-.184-.336-.459-.612-.795-.795l-19.363-10.59c-1.387-.759-1.387-2.751 0-3.509l19.363-10.59c.336-.184.612-.459.795-.795l10.59-19.363c.758-1.387 2.75-1.387 3.509 0z" fill="#fff5f5"/><path d="m119.274 300.73 7.433 13.59c.129.236.322.429.558.558l13.59 7.433c.974.532.974 1.931 0 2.463l-13.59 7.433c-.236.129-.429.322-.558.558l-7.433 13.59c-.532.974-1.931.974-2.463 0l-7.433-13.59c-.129-.236-.322-.429-.558-.558l-13.59-7.433c-.974-.532-.974-1.931 0-2.463l13.59-7.433c.236-.129.429-.322.558-.558l7.433-13.59c.533-.973 1.931-.973 2.463 0z" fill="#fdf061"/><path d="m379.274 320.73 7.433 13.59c.129.236.322.429.558.558l13.59 7.433c.974.532.974 1.931 0 2.463l-13.59 7.433c-.236.129-.429.322-.558.558l-7.433 13.59c-.532.974-1.931.974-2.463 0l-7.433-13.59c-.129-.236-.322-.429-.558-.558l-13.59-7.433c-.974-.532-.974-1.931 0-2.463l13.59-7.433c.236-.129.429-.322.558-.558l7.433-13.59c.533-.973 1.931-.973 2.463 0z" fill="#fd73c4"/></g></svg>