<svg id="Capa_1" enable-background="new 0 0 512 512" height="512" viewBox="0 0 512 512" width="512" xmlns="http://www.w3.org/2000/svg" xmlns:xlink="http://www.w3.org/1999/xlink"><linearGradient id="SVGID_1_" gradientUnits="userSpaceOnUse" x1="0" x2="512" y1="256" y2="256"><stop offset="0" stop-color="#ffd9d9" stop-opacity="0"/><stop offset=".9981" stop-color="#ffb3b3"/></linearGradient><linearGradient id="SVGID_2_" gradientUnits="userSpaceOnUse" x1="256" x2="256" y1="456.642" y2="65.358"><stop offset="0" stop-color="#ff4d4d" stop-opacity=".4"/><stop offset="1" stop-color="#ff4d4d" stop-opacity="0"/></linearGradient><g><g><path d="m418.32 2.5c-55.666-9.521-178.298 12.183-200.004 105.017-14.431 61.722-14.007 112.075-50.427 113.02-21.67.562-32.97-44.31-62.889-48.001-39.047-4.817-66.145 27.695-83.057 57.138-37.205 64.772-25.571 174.918 23.354 228.632 118.488 130.086 259.197-5.952 319.358-112.309 38.584-68.213 125.637-123.351 143.767-200.248 15.177-64.376-18.503-131.003-90.102-143.249z" fill="url(#SVGID_1_)"/></g><g><g><path d="m392.471 456.642h-272.942c-8.284 0-15-6.716-15-15v-361.284c0-8.284 6.716-15 15-15h272.943c8.284 0 15 6.716 15 15v361.283c-.001 8.285-6.717 15.001-15.001 15.001z" fill="#8383ff"/><g><g><path d="m145.671 429.763h-6.52c-2.762 0-5-2.239-5-5s2.238-5 5-5h6.52c2.762 0 5 2.239 5 5s-2.238 5-5 5z" fill="#fff"/></g><g><path d="m245.671 411.734h-106.519c-2.762 0-5-2.239-5-5s2.238-5 5-5h106.519c2.762 0 5 2.239 5 5s-2.238 5-5 5z" fill="#fff"/></g><g><path d="m179.271 429.763h-6.52c-2.762 0-5-2.239-5-5s2.238-5 5-5h6.52c2.762 0 5 2.239 5 5s-2.238 5-5 5z" fill="#fff"/></g><g><path d="m212.872 429.763h-6.519c-2.762 0-5-2.239-5-5s2.238-5 5-5h6.519c2.762 0 5 2.239 5 5s-2.239 5-5 5z" fill="#fff"/></g><g><path d="m274.815 411.734h-6.52c-2.762 0-5-2.239-5-5s2.238-5 5-5h6.52c2.762 0 5 2.239 5 5s-2.239 5-5 5z" fill="#fff"/></g><g><g><path d="m372.848 429.82c-2.761 0-5-2.239-5-5v-.115c0-2.761 2.239-5 5-5s5 2.239 5 5v.115c0 2.761-2.239 5-5 5z" fill="#fff"/></g><g><path d="m372.848 411.792c-2.761 0-5-2.239-5-5v-.115c0-2.761 2.239-5 5-5s5 2.239 5 5v.115c0 2.761-2.239 5-5 5z" fill="#fff"/></g><g><path d="m372.848 393.763c-2.761 0-5-2.239-5-5v-.115c0-2.761 2.239-5 5-5s5 2.239 5 5v.115c0 2.762-2.239 5-5 5z" fill="#fff"/></g><g><path d="m372.848 375.735c-2.761 0-5-2.239-5-5v-.115c0-2.761 2.239-5 5-5s5 2.239 5 5v.115c0 2.761-2.239 5-5 5z" fill="#fff"/></g></g><g><g><path d="m142.412 156.38c-2.761 0-5-2.239-5-5v-.115c0-2.761 2.239-5 5-5s5 2.239 5 5v.115c0 2.761-2.239 5-5 5z" fill="#fff"/></g><g><path d="m142.412 138.352c-2.761 0-5-2.239-5-5v-.115c0-2.761 2.239-5 5-5s5 2.239 5 5v.115c0 2.761-2.239 5-5 5z" fill="#fff"/></g><g><path d="m142.412 120.324c-2.761 0-5-2.239-5-5v-.115c0-2.761 2.239-5 5-5s5 2.239 5 5v.115c0 2.761-2.239 5-5 5z" fill="#fff"/></g><g><path d="m142.412 102.295c-2.761 0-5-2.239-5-5v-.115c0-2.761 2.239-5 5-5s5 2.239 5 5v.115c0 2.761-2.239 5-5 5z" fill="#fff"/></g></g></g></g><path d="m443.573 232.676c-2.761 0-5-2.238-5-5 0-3.492-2.841-6.333-6.333-6.333-2.761 0-5-2.238-5-5s2.239-5 5-5c3.492 0 6.333-2.842 6.333-6.334 0-2.762 2.239-5 5-5s5 2.238 5 5c0 3.492 2.841 6.334 6.333 6.334 2.761 0 5 2.238 5 5s-2.239 5-5 5c-3.492 0-6.333 2.841-6.333 6.333 0 2.762-2.238 5-5 5z" fill="#ff4d4d"/><path d="m69.76 389.717c-2.761 0-5-2.238-5-5 0-3.492-2.841-6.334-6.333-6.334-2.761 0-5-2.238-5-5s2.239-5 5-5c3.492 0 6.333-2.841 6.333-6.333 0-2.762 2.239-5 5-5s5 2.238 5 5c0 3.492 2.841 6.333 6.333 6.333 2.761 0 5 2.238 5 5s-2.239 5-5 5c-3.492 0-6.333 2.842-6.333 6.334 0 2.762-2.238 5-5 5z" fill="#6c6cff"/><path d="m244.667 46.869c-2.761 0-5-2.238-5-5 0-3.492-2.841-6.333-6.333-6.333-2.761 0-5-2.238-5-5s2.239-5 5-5c3.492 0 6.333-2.841 6.333-6.333 0-2.762 2.239-5 5-5s5 2.238 5 5c0 3.492 2.841 6.333 6.334 6.333 2.761 0 5 2.238 5 5s-2.239 5-5 5c-3.492 0-6.334 2.841-6.334 6.333 0 2.762-2.239 5-5 5z" fill="#ff4d4d"/><g fill="#ff9d33"><g><path d="m63.427 315.894c-2.761 0-5-2.238-5-5v-.15c0-2.762 2.239-5 5-5s5 2.238 5 5v.15c0 2.761-2.239 5-5 5z"/><path d="m63.427 343.678c-2.761 0-5-2.238-5-5v-.15c0-2.762 2.239-5 5-5s5 2.238 5 5v.15c0 2.762-2.239 5-5 5z"/></g><g><path d="m51.456 322.803c-.85 0-1.712-.217-2.5-.674l-.13-.075c-2.39-1.384-3.206-4.442-1.822-6.832 1.383-2.391 4.441-3.208 6.833-1.822l.13.075c2.39 1.384 3.206 4.442 1.822 6.832-.928 1.601-2.607 2.496-4.333 2.496z"/><path d="m75.519 336.694c-.839 0-1.688-.211-2.469-.655l-.13-.074c-2.4-1.366-3.238-4.42-1.871-6.819 1.367-2.4 4.421-3.237 6.819-1.872l.13.074c2.4 1.366 3.238 4.42 1.872 6.819-.924 1.619-2.613 2.527-4.351 2.527z"/></g><g><path d="m51.335 336.694c-1.736 0-3.423-.905-4.346-2.521-1.37-2.397-.537-5.451 1.861-6.821l.13-.074c2.396-1.37 5.452-.538 6.822 1.86 1.37 2.397.537 5.451-1.861 6.821l-.13.074c-.782.448-1.634.661-2.476.661z"/><path d="m75.398 322.803c-1.729 0-3.41-.897-4.336-2.503-1.38-2.392-.559-5.449 1.833-6.829l.13-.075c2.391-1.382 5.449-.56 6.829 1.833 1.38 2.392.559 5.449-1.833 6.829l-.13.075c-.787.454-1.646.67-2.493.67z"/></g></g><g fill="#6c6cff"><g><path d="m457.24 157.621c-2.761 0-5-2.238-5-5v-.15c0-2.762 2.239-5 5-5s5 2.238 5 5v.15c0 2.762-2.239 5-5 5z"/><path d="m457.24 185.405c-2.761 0-5-2.238-5-5v-.15c0-2.762 2.239-5 5-5s5 2.238 5 5v.15c0 2.762-2.239 5-5 5z"/></g><g><path d="m445.269 164.53c-.85 0-1.711-.217-2.5-.674l-.13-.075c-2.39-1.384-3.206-4.442-1.822-6.832 1.384-2.391 4.441-3.208 6.833-1.822l.13.075c2.39 1.384 3.206 4.442 1.822 6.832-.928 1.602-2.607 2.496-4.333 2.496z"/><path d="m469.331 178.422c-.841 0-1.694-.213-2.476-.66l-.13-.074c-2.398-1.37-3.231-4.424-1.861-6.821 1.37-2.398 4.426-3.229 6.822-1.86l.13.074c2.398 1.37 3.231 4.424 1.861 6.821-.923 1.615-2.611 2.52-4.346 2.52z"/></g><g><path d="m445.148 178.422c-1.736 0-3.423-.905-4.346-2.521-1.37-2.397-.537-5.451 1.861-6.821l.13-.074c2.396-1.37 5.452-.538 6.822 1.86s.537 5.451-1.861 6.821l-.13.074c-.782.448-1.634.661-2.476.661z"/><path d="m469.21 164.53c-1.726 0-3.405-.895-4.332-2.496-1.384-2.39-.568-5.448 1.822-6.832l.13-.075c2.392-1.386 5.449-.568 6.832 1.822 1.384 2.39.568 5.448-1.822 6.832l-.13.075c-.788.458-1.649.674-2.5.674z"/></g></g><path d="m358.137 272.272c25.355-25.355 25.355-66.463 0-91.818-25.355-25.355-66.463-25.355-91.818 0l-10.319 10.319-10.319-10.319c-25.355-25.355-66.463-25.355-91.818 0-25.355 25.355-25.355 66.463 0 91.818l95.768 95.768c3.518 3.518 9.221 3.518 12.739 0z" fill="#ff4d4d"/><path d="m392.471 456.642h-272.942c-8.284 0-15-6.716-15-15v-361.284c0-8.284 6.716-15 15-15h272.943c8.284 0 15 6.716 15 15v361.283c-.001 8.285-6.717 15.001-15.001 15.001z" fill="url(#SVGID_2_)"/><path d="m448.573 261h-91.6c-2.412 0-4.48 1.722-4.917 4.093l-12.808 69.411-19.413-99.939c-.453-2.331-2.482-4.022-4.857-4.047h-.052c-2.353 0-4.391 1.643-4.887 3.946l-5.72 26.536h-6.145c-2.149 0-4.059 1.374-4.741 3.412l-8.913 26.613-9.458-27.637c-.692-2.022-2.593-3.381-4.73-3.381h-13.394c-1.914 0-3.66 1.093-4.497 2.813l-5.512 11.337-21.072-123.733c-.414-2.429-2.54-4.173-4.999-4.16-2.464.035-4.535 1.859-4.881 4.299l-21.353 150.807-7.741-37.807c-.477-2.326-2.523-3.997-4.898-3.997h-118.558c-2.761 0-5 2.238-5 5s2.239 5 5 5h114.477l12.72 62.122c.488 2.383 2.653 4.064 5.052 3.995 2.431-.075 4.456-1.889 4.797-4.297l20.91-147.671 18.304 107.477c.365 2.142 2.071 3.803 4.222 4.11 2.148.304 4.254-.81 5.204-2.764l10.955-22.531h6.691l13.083 38.229c.692 2.022 2.593 3.381 4.73 3.381h.017c2.144-.007 4.044-1.38 4.725-3.412l12.459-37.205h6.583c2.355 0 4.392-1.644 4.888-3.946l1.428-6.624 19.793 101.898c.457 2.352 2.515 4.047 4.908 4.047h.024c2.403-.012 4.457-1.729 4.893-4.093l16.844-91.282h87.439c2.761 0 5-2.238 5-5s-2.238-5-5-5z" fill="#2c27ff"/></g></g></svg>