<svg id="Capa_1" enable-background="new 0 0 512 512" height="512" viewBox="0 0 512 512" width="512" xmlns="http://www.w3.org/2000/svg" xmlns:xlink="http://www.w3.org/1999/xlink"><linearGradient id="SVGID_1_" gradientUnits="userSpaceOnUse" x1="48.433" x2="503.073" y1="133.978" y2="411.663"><stop offset=".0485" stop-color="#d2deff"/><stop offset=".9993" stop-color="#dcfdee"/></linearGradient><linearGradient id="SVGID_2_" gradientUnits="userSpaceOnUse" x1="256.001" x2="256.001" y1="109.664" y2="393.914"><stop offset=".0028" stop-color="#ff7eb8" stop-opacity="0"/><stop offset="1" stop-color="#ff7eb8" stop-opacity=".6"/></linearGradient><g><g><path d="m408.229 151.712c-23.697-9.236-43.717-26.089-55.961-48.381-20.59-37.487-60.43-62.898-106.221-62.898-47.53 0-88.646 27.377-108.477 67.219-12.146 24.401-32.814 43.56-58.09 53.761-37.349 15.074-68.703 49.524-78.653 103.382-1.092 5.91-1.108 11.986-.016 17.896 15.448 83.573 82.399 120.435 143.334 110.66 34.126-5.474 68.672 5.909 93.967 29.462 51.434 47.892 133.884 62.907 213.923 11.57 9.377-6.014 21.957-18.634 27.966-28.015 68.966-107.669 17.879-219.713-71.772-254.656z" fill="url(#SVGID_1_)"/><path d="m312.711 466.618h-113.421l22.682-89.904h68.057z" fill="#9fb0fe"/><path d="m297.929 408.016h-83.857l7.9-31.302h68.057z" fill="#8399fe"/><path d="m456.001 124.664v254.25c0 8.28-6.72 15-15 15h-370c-8.28 0-15-6.72-15-15v-254.25c0-8.28 6.72-15 15-15h369.999c8.281 0 15.001 6.72 15.001 15z" fill="#fff"/><path d="m56.001 294.306v84.608c0 8.28 6.72 15 15 15h369.999c8.28 0 15-6.72 15-15v-84.608z" fill="#ffc4df"/><path d="m105.679 274.318h-49.678v-70.678h49.678c1.657 0 3 1.343 3 3v64.678c0 1.657-1.343 3-3 3z" fill="#97ffd2"/><path d="m456.001 274.318h-49.678c-1.657 0-3-1.343-3-3v-64.678c0-1.657 1.343-3 3-3h49.678z" fill="#97ffd2"/><path d="m375.397 274.318h-238.792c-1.657 0-3-1.343-3-3v-64.678c0-1.657 1.343-3 3-3h238.792c1.657 0 3 1.343 3 3v64.678c0 1.657-1.343 3-3 3z" fill="#97ffd2"/><ellipse cx="256.001" cy="249.315" fill="#02ffb3" rx="41.928" ry="9.324"/><path d="m456.001 157.836v-33.171c0-8.284-6.716-15-15-15h-370c-8.284 0-15 6.716-15 15v33.171z" fill="#6583fe"/><path d="m56.001 343.522v35.39c0 8.284 6.716 15 15 15h369.999c8.284 0 15-6.716 15-15v-35.39z" fill="#b7c5ff"/><g fill="#fff"><circle cx="104.554" cy="315.217" r="5.597"/><circle cx="121.485" cy="315.217" r="5.597"/><circle cx="138.417" cy="315.217" r="5.597"/><path d="m207.373 310.208h-16.736c-2.616 0-4.952 1.912-5.2 4.516-.285 2.987 2.056 5.501 4.985 5.501h16.951c2.766 0 5.008-2.242 5.008-5.009 0-2.765-2.242-5.008-5.008-5.008z"/></g><path d="m407.821 310.208h-176.094c-2.766 0-5.008 2.242-5.008 5.008s2.242 5.009 5.008 5.009h176.309c2.929 0 5.27-2.514 4.985-5.501-.248-2.603-2.584-4.516-5.2-4.516z" fill="#ff7eb8"/><path d="m456.001 124.664v254.25c0 8.28-6.72 15-15 15h-370c-8.28 0-15-6.72-15-15v-254.25c0-8.28 6.72-15 15-15h369.999c8.281 0 15.001 6.72 15.001 15z" fill="url(#SVGID_2_)"/><path d="m94.083 128.677c-2.762 0-5 2.238-5 5v.145c0 2.762 2.238 5 5 5s5-2.238 5-5v-.145c0-2.761-2.238-5-5-5z" fill="#2d58e0"/><path d="m113.408 128.677c-2.762 0-5 2.238-5 5v.145c0 2.762 2.238 5 5 5s5-2.238 5-5v-.145c0-2.761-2.238-5-5-5z" fill="#2d58e0"/><path d="m132.732 128.677c-2.762 0-5 2.238-5 5v.145c0 2.762 2.238 5 5 5s5-2.238 5-5v-.145c0-2.761-2.238-5-5-5z" fill="#2d58e0"/><path d="m326.668 131.333c0 30.938-44.405 90.54-62.816 113.921-4.003 5.084-11.699 5.084-15.702 0-18.41-23.381-62.816-82.983-62.816-113.921 0-39.028 31.639-70.667 70.667-70.667s70.667 31.639 70.667 70.667z" fill="#ff7eb8"/><ellipse cx="256.001" cy="127.169" fill="#fff" rx="34.405" ry="34.405" transform="matrix(.233 -.972 .972 .233 72.642 346.459)"/></g><path d="m331.935 461.612h-151.867c-2.762 0-5 2.238-5 5s2.238 5 5 5h151.867c2.762 0 5-2.238 5-5s-2.238-5-5-5z" fill="#6583fe"/><g><path d="m361.047 71.796c-2.762 0-5-2.238-5-5 0-3.317-2.698-6.016-6.016-6.016-2.762 0-5-2.238-5-5s2.238-5 5-5c3.317 0 6.016-2.698 6.016-6.016 0-2.762 2.238-5 5-5s5 2.238 5 5c0 3.317 2.698 6.016 6.016 6.016 2.762 0 5 2.238 5 5s-2.238 5-5 5c-3.317 0-6.016 2.698-6.016 6.016 0 2.761-2.238 5-5 5z" fill="#97ffd2"/><path d="m127.082 448.697c-2.762 0-5-2.238-5-5 0-3.317-2.698-6.016-6.016-6.016-2.762 0-5-2.238-5-5s2.238-5 5-5c3.317 0 6.016-2.698 6.016-6.016 0-2.762 2.238-5 5-5s5 2.238 5 5c0 3.317 2.698 6.016 6.016 6.016 2.762 0 5 2.238 5 5s-2.238 5-5 5c-3.317 0-6.016 2.698-6.016 6.016 0 2.762-2.238 5-5 5z" fill="#6583fe"/><g fill="#ff7eb8"><path d="m361.047 448.676c-1.279 0-2.56-.488-3.535-1.465l-10.994-10.994c-1.953-1.952-1.953-5.118 0-7.07l10.994-10.994c1.951-1.953 5.119-1.953 7.07 0l10.994 10.994c1.953 1.952 1.953 5.118 0 7.07l-10.994 10.994c-.976.976-2.256 1.465-3.535 1.465zm-3.923-15.995 3.923 3.923 3.923-3.923-3.923-3.923z"/><path d="m413.045 472.236c-1.279 0-2.56-.488-3.535-1.465l-10.994-10.994c-1.953-1.952-1.953-5.118 0-7.07l10.994-10.994c1.951-1.953 5.119-1.953 7.07 0l10.994 10.994c1.953 1.952 1.953 5.118 0 7.07l-10.994 10.994c-.975.977-2.256 1.465-3.535 1.465zm-3.923-15.994 3.923 3.923 3.923-3.923-3.923-3.923z"/></g></g></g></svg>