<svg id="Capa_1" enable-background="new 0 0 512 512" height="512" viewBox="0 0 512 512" width="512" xmlns="http://www.w3.org/2000/svg"><g><g><path d="m106.908 260.686v241.329c0 5.515 4.471 9.986 9.986 9.986h372.283c5.515 0 9.986-4.471 9.986-9.986v-233.112c0-4.538-3.679-8.217-8.217-8.217z" fill="#ecf4ff"/></g><g><path d="m461.614 260.686v203.78c0 5.515-4.471 9.986-9.986 9.986h-344.72v27.563c0 5.515 4.471 9.986 9.986 9.986h372.283c5.515 0 9.986-4.471 9.986-9.986v-233.112c0-4.538-3.679-8.217-8.217-8.217z" fill="#ddeafb"/></g><path d="m399.031 260.686v104.188c1.723-.865 3.288-2.051 4.576-3.545l86.755-100.643z" fill="#ddeafb"/><path d="m439.436 260.686-40.405 46.873v57.315c1.723-.865 3.288-2.051 4.576-3.545l86.755-100.643z" fill="#cbe2ff"/><g><path d="m395.107 366.462h-372.284c-5.515 0-9.986-4.471-9.986-9.986v-257.619l4.993-14.323h382.27l4.993 14.323v161.829l-12.12 45.722 11.184 54.296c-1.593 3.402-5.046 5.758-9.05 5.758z" fill="#ecf4ff"/></g><g><path d="m400.1 84.534h-32.556v234.394c0 5.515-4.471 9.986-9.986 9.986h-344.72v27.563c0 5.515 4.471 9.986 9.986 9.986h372.283c5.515 0 9.986-4.471 9.986-9.986v-257.62z" fill="#ddeafb"/></g><g><path d="m405.092 98.857h-392.254v-88.857c0-5.523 4.477-10 10-10h372.255c5.523 0 10 4.477 10 10v88.857z" fill="#5766cb"/></g><g><path d="m395.107 0h-27.563v98.857h37.549v-88.871c-.001-5.515-4.471-9.986-9.986-9.986z" fill="#3d4fc3"/></g><g><circle cx="60.706" cy="49.148" fill="#dd636e" r="14.604"/></g><g><circle cx="105.117" cy="49.148" fill="#ffd064" r="14.604"/></g><g><circle cx="149.529" cy="49.148" fill="#b1e4f9" r="14.604"/></g><g><g><g><path d="m58.599 230.292c-4.136 0-7.489-3.353-7.489-7.489v-74.062c0-3.277 2.131-6.175 5.26-7.15 3.128-.975 6.529.197 8.391 2.894l38.145 55.237-.494-51.047c-.04-4.136 3.28-7.521 7.416-7.561h.074c4.102 0 7.448 3.306 7.487 7.417l.693 71.7c0 4.274-2.35 7.723-5.987 8.86-3.55 1.107-7.309-.295-9.581-3.577l-36.426-52.748v50.037c0 4.136-3.353 7.489-7.489 7.489z" fill="#90d8f9"/></g></g><g><g><path d="m175.297 230.292h-30.98c-4.136 0-7.489-3.353-7.489-7.489v-73.523c0-4.137 3.353-7.489 7.489-7.489h30.98c4.136 0 7.489 3.353 7.489 7.489s-3.353 7.489-7.489 7.489h-23.49v58.544h23.49c4.136 0 7.489 3.353 7.489 7.489s-3.353 7.49-7.489 7.49z" fill="#90d8f9"/></g><g><path d="m173.013 193.531h-28.695c-4.136 0-7.489-3.353-7.489-7.489 0-4.137 3.353-7.489 7.489-7.489h28.695c4.136 0 7.489 3.353 7.489 7.489s-3.353 7.489-7.489 7.489z" fill="#90d8f9"/></g></g><g><g><path d="m329.414 230.631c-12.028 0-23.769-5.032-31.406-13.459-2.778-3.065-2.545-7.8.52-10.578 3.066-2.777 7.802-2.544 10.578.521 4.846 5.347 12.438 8.538 20.308 8.538 8.106 0 13.85-5.038 14.72-9.909.861-4.819-3.101-9.226-10.869-12.092-11.452-4.224-21.618-8.749-22.045-8.939-.36-.161-.708-.35-1.039-.566-7.236-4.718-10.963-12.993-9.728-21.597 1.323-9.216 8.09-16.733 17.661-19.615 19.36-5.829 35.324 7.338 35.994 7.901 3.166 2.661 3.575 7.386.914 10.552-2.653 3.156-7.355 3.573-10.521.939-.229-.184-10.636-8.491-22.067-5.049-3.987 1.2-6.661 3.967-7.154 7.4-.379 2.642.613 5.083 2.668 6.631 2.366 1.039 11.098 4.822 20.501 8.291 17.686 6.524 22.151 19.142 20.43 28.777-2.265 12.687-14.932 22.254-29.465 22.254z" fill="#90d8f9"/></g></g><g><g><path d="m218.096 230.631c-3.873 0-7.338-2.444-8.635-6.098-.122-.343-.218-.695-.289-1.053l-14.457-73.086c-.803-4.058 1.836-7.997 5.893-8.8 4.057-.804 7.998 1.836 8.8 5.894l9.942 50.26 15.751-50.886c1.223-3.95 5.417-6.161 9.369-4.94 3.951 1.224 6.163 5.418 4.94 9.369l-22.573 72.929c-.02.065-.041.131-.063.195-1.254 3.691-4.716 6.189-8.614 6.216-.022 0-.043 0-.064 0z" fill="#90d8f9"/></g><g><path d="m266.349 230.631c-3.873 0-7.338-2.444-8.635-6.098-.035-.099-.068-.2-.099-.301l-22.516-73.086c-1.218-3.952 1-8.144 4.952-9.362 3.951-1.218 8.144 1 9.362 4.953l15.715 51.008 9.977-50.13c.808-4.057 4.749-6.693 8.807-5.883 4.057.807 6.691 4.75 5.884 8.807l-14.515 72.929c-.064.321-.149.638-.255.948-1.254 3.691-4.716 6.189-8.614 6.216-.021-.001-.043-.001-.063-.001z" fill="#90d8f9"/></g></g></g><g><g><g><path d="m179.031 271.771h-122.048c-4.136 0-7.489-3.353-7.489-7.489s3.353-7.489 7.489-7.489h122.048c4.136 0 7.489 3.353 7.489 7.489s-3.353 7.489-7.489 7.489z" fill="#90d8f9"/></g><g><path d="m179.031 306.408h-122.048c-4.136 0-7.489-3.353-7.489-7.489 0-4.137 3.353-7.489 7.489-7.489h122.048c4.136 0 7.489 3.353 7.489 7.489s-3.353 7.489-7.489 7.489z" fill="#90d8f9"/></g></g><g><g><path d="m347.141 271.771h-122.048c-4.136 0-7.489-3.353-7.489-7.489s3.353-7.489 7.489-7.489h122.048c4.136 0 7.489 3.353 7.489 7.489s-3.353 7.489-7.489 7.489z" fill="#90d8f9"/></g><g><path d="m347.141 306.408h-122.048c-4.136 0-7.489-3.353-7.489-7.489 0-4.137 3.353-7.489 7.489-7.489h122.048c4.136 0 7.489 3.353 7.489 7.489s-3.353 7.489-7.489 7.489z" fill="#90d8f9"/></g></g></g><g><g><g><path d="m280.004 416.402h-122.048c-4.136 0-7.489-3.353-7.489-7.489s3.353-7.489 7.489-7.489h122.049c4.136 0 7.489 3.353 7.489 7.489s-3.353 7.489-7.49 7.489z" fill="#90d8f9"/></g><g><path d="m280.004 451.038h-122.048c-4.136 0-7.489-3.353-7.489-7.489s3.353-7.489 7.489-7.489h122.049c4.136 0 7.489 3.353 7.489 7.489s-3.353 7.489-7.49 7.489z" fill="#90d8f9"/></g></g><g><g><path d="m448.114 416.402h-122.048c-4.136 0-7.489-3.353-7.489-7.489s3.353-7.489 7.489-7.489h122.048c4.136 0 7.489 3.353 7.489 7.489s-3.353 7.489-7.489 7.489z" fill="#90d8f9"/></g><g><path d="m448.114 451.038h-122.048c-4.136 0-7.489-3.353-7.489-7.489s3.353-7.489 7.489-7.489h122.048c4.136 0 7.489 3.353 7.489 7.489s-3.353 7.489-7.489 7.489z" fill="#90d8f9"/></g></g></g></g></svg>