<?xml version="1.0" encoding="UTF-8"?>
<svg xmlns="http://www.w3.org/2000/svg" xmlns:xlink="http://www.w3.org/1999/xlink" width="512" height="512" viewBox="0 0 60 60" version="1.1"><!-- Generator: Sketch 51.3 (57544) - http://www.bohemiancoding.com/sketch --><title>036 - F1 Cars</title><desc>Created with Sketch.</desc><defs/><g id="Page-1" stroke="none" stroke-width="1" fill="none" fill-rule="evenodd"><g id="036---F1-Cars" fill-rule="nonzero"><path d="M38,44 L36,38 C36,37.45 37.55,35 37,35 L37,27 L41,28 C43.01,31.44 44.49,38.04 45,42 L38,44 Z" id="Shape" fill="#283593"/><path d="M54,27 L54,35 C53.45,35 55,37.45 55,38 L53,43 L47,43 C47.51,39.04 46.99,33.44 49,30 L54,27 Z" id="Shape" fill="#283593"/><path d="M7,53 L5,51 C5,50.45 6.55,47 6,47 L6,39 L11,41 C13.01,44.44 13.49,53.04 14,57 L7,53 Z" id="Shape" fill="#C81E1E"/><path d="M23,39 L23,47 C22.45,47 24,50.45 24,51 L23,55 L16,57 C16.51,53.04 16.99,45.44 19,42 L23,39 Z" id="Shape" fill="#C81E1E"/><path d="M7,48 L7,53 L5,55 L2,55 C1.44771525,55 1,54.5522847 1,54 L1,48 C1,47.4477153 1.44771525,47 2,47 L6,47 C6.55228475,47 7,47.4477153 7,48 Z" id="Shape" fill="#37474F"/><rect id="Rectangle-path" fill="#37474F" x="2" y="22" width="6" height="8" rx="1"/><path d="M28,48 L28,54 C28,54.5522847 27.5522847,55 27,55 L24,55 L22,53 L22,48 C22,47.4477153 22.4477153,47 23,47 L27,47 C27.5522847,47 28,47.4477153 28,48 Z" id="Shape" fill="#37474F"/><rect id="Rectangle-path" fill="#37474F" x="21" y="22" width="6" height="8" rx="1"/><path d="M5,48 L5,53 L3,55 L2,55 C1.44771525,55 1,54.5522847 1,54 L1,48 C1,47.4477153 1.44771525,47 2,47 L4,47 C4.55228475,47 5,47.4477153 5,48 Z" id="Shape" fill="#607D8B"/><rect id="Rectangle-path" fill="#607D8B" x="2" y="22" width="4" height="8" rx="1"/><path d="M26,48 L26,54 C26,54.5522847 25.5522847,55 25,55 L24,55 L22,53 L22,48 C22,47.4477153 22.4477153,47 23,47 L25,47 C25.5522847,47 26,47.4477153 26,48 Z" id="Shape" fill="#607D8B"/><rect id="Rectangle-path" fill="#607D8B" x="21" y="22" width="4" height="8" rx="1"/><path d="M13.53,18 L13,22 L4,22 L4,19 C4,18.4477153 4.44771525,18 5,18 L13.53,18 Z" id="Shape" fill="#EF314C"/><path d="M25,19 L25,22 L16,22 L15.47,18 L24,18 C24.5522847,18 25,18.4477153 25,19 Z" id="Shape" fill="#BB193B"/><path d="M23,19 L23,22 L16,22 L15.47,18 L22,18 C22.5522847,18 23,18.4477153 23,19 Z" id="Shape" fill="#EF314C"/><path d="M19,36 L17.68,26 L17.15,22 L16.62,18 L16.22,15 C16.0930116,14.1479981 15.3614136,13.5173611 14.5,13.5173611 C13.6385864,13.5173611 12.9069884,14.1479981 12.78,15 L12.71,15.5 L12.38,18 L11.85,22 L11.32,26 L10,36 C8.96670295,36.0166627 7.95737582,36.3139303 7.08,36.86 C6.82488491,37.0385053 6.60458979,37.2621895 6.43,37.52 C6.1399797,37.9583504 5.99002089,38.4744877 6,39 L7.62,41.78 C9.63190212,45.2264267 10.9309354,49.041912 11.44,53 L17.56,53 C18.0690646,49.041912 19.3680979,45.2264267 21.38,41.78 L23,39 C23,36 19,36 19,36 Z M13.12,42 C12.8355778,42.0011222 12.564328,41.8802279 12.3750109,41.6679633 C12.1856938,41.4556986 12.0964855,41.172443 12.13,40.89 L12.49,37.74 L12.53,37.42 C12.7490065,36.7589924 13.2853988,36.252198 13.9577606,36.0710227 C14.6301224,35.8898473 15.3485275,36.0585226 15.87,36.52 C16.1482112,36.759777 16.3556717,37.0709677 16.47,37.42 L16.48,37.51 L16.87,40.89 C16.9035145,41.172443 16.8143062,41.4556986 16.6249891,41.6679633 C16.435672,41.8802279 16.1644222,42.0011222 15.88,42 L13.12,42 Z" id="Shape" fill="#C81E1E"/><path d="M16.48,37.51 C16.19,37.48 16,37.48 16,37.48 L15.87,36.52 L14.68,27.48 L14.15,23.48 L13.62,19.48 L13.22,16.48 C13.1662564,16.104885 12.9863854,15.7592504 12.71,15.5 L12.38,18 L11.85,22 L11.32,26 L10,36 C8.96670295,36.0166627 7.95737582,36.3139303 7.08,36.86 L7,37.48 C6.80942722,37.4832645 6.61916092,37.4966165 6.43,37.52 C6.1399797,37.9583504 5.99002089,38.4744877 6,39 L7.62,41.78 C9.63190212,45.2264267 10.9309354,49.041912 11.44,53 L14.79,53 C15.4074833,49.5682692 16.62259,46.271573 18.38,43.26 L20,40.48 C20,38.13 17.54,37.62 16.48,37.51 Z" id="Shape" fill="#F44335"/><rect id="Rectangle-path" fill="#BB193B" x="5" y="53" width="19" height="6" rx="1"/><rect id="Rectangle-path" fill="#EF314C" x="5" y="53" width="16" height="6" rx="1"/><path d="M16.87,40.89 C16.9035145,41.172443 16.8143062,41.4556986 16.6249891,41.6679633 C16.435672,41.8802279 16.1644222,42.0011222 15.88,42 L13.12,42 C12.8355778,42.0011222 12.564328,41.8802279 12.3750109,41.6679633 C12.1856938,41.4556986 12.0964855,41.172443 12.13,40.89 L12.53,37.42 C12.8130915,36.57251 13.6064788,36.0010494 14.5,36.0010494 C15.3935212,36.0010494 16.1869085,36.57251 16.47,37.42 L16.87,40.89 Z" id="Shape" fill="#37474F"/><rect id="Rectangle-path" fill="#37474F" x="33" y="10" width="6" height="8" rx="1"/><path d="M38,36 L38,41 L36,43 L33,43 C32.4477153,43 32,42.5522847 32,42 L32,36 C32,35.4477153 32.4477153,35 33,35 L37,35 C37.5522847,35 38,35.4477153 38,36 Z" id="Shape" fill="#37474F"/><path d="M59,36 L59,42 C59,42.5522847 58.5522847,43 58,43 L55,43 L53,41 L53,36 C53,35.4477153 53.4477153,35 54,35 L58,35 C58.5522847,35 59,35.4477153 59,36 Z" id="Shape" fill="#37474F"/><rect id="Rectangle-path" fill="#37474F" x="52" y="10" width="6" height="8" rx="1"/><rect id="Rectangle-path" fill="#607D8B" x="33" y="10" width="4" height="8" rx="1"/><path d="M36,36 L36,41 L34,43 L33,43 C32.4477153,43 32,42.5522847 32,42 L32,36 C32,35.4477153 32.4477153,35 33,35 L35,35 C35.5522847,35 36,35.4477153 36,36 Z" id="Shape" fill="#607D8B"/><path d="M57,36 L57,42 C57,42.5522847 56.5522847,43 56,43 L55,43 L53,41 L53,36 C53,35.4477153 53.4477153,35 54,35 L56,35 C56.5522847,35 57,35.4477153 57,36 Z" id="Shape" fill="#607D8B"/><rect id="Rectangle-path" fill="#607D8B" x="52" y="10" width="4" height="8" rx="1"/><path d="M46,6 L45.47,10 L35,10 L35,7 C35,6.44771525 35.4477153,6 36,6 L46,6 Z" id="Shape" fill="#FFDC00"/><path d="M56,7 L56,10 L47,10 L46.47,6 L55,6 C55.5522847,6 56,6.44771525 56,7 Z" id="Shape" fill="#FEC108"/><path d="M54,7 L54,10 L47,10 L46.47,6 L53,6 C53.5522847,6 54,6.44771525 54,7 Z" id="Shape" fill="#FFDC00"/><path d="M54,27 L52.38,29.78 C50.3680979,33.2264267 49.0690646,37.041912 48.56,41 L42.44,41 C41.9309354,37.041912 40.6319021,33.2264267 38.62,29.78 L37,27 C36.9900209,26.4744877 37.1399797,25.9583504 37.43,25.52 C37.6045898,25.2621895 37.8248849,25.0385053 38.08,24.86 C38.9573758,24.3139303 39.966703,24.0166627 41,24 L42.85,10 L43.38,6 L43.71,3.5 L43.78,3 C43.9069884,2.14799809 44.6385864,1.51736107 45.5,1.51736107 C46.3614136,1.51736107 47.0930116,2.14799809 47.22,3 L47.62,6 L48.15,10 L50,24 C50,24 54,24 54,27 Z" id="Shape" fill="#283593"/><path d="M51,28.48 L49.38,31.26 C47.62259,34.271573 46.4074833,37.5682692 45.79,41 L42.44,41 C41.9309354,37.041912 40.6319021,33.2264267 38.62,29.78 L37,27 C36.9900209,26.4744877 37.1399797,25.9583504 37.43,25.52 C37.6191609,25.4966165 37.8094272,25.4832645 38,25.48 L38.08,24.86 C38.9573758,24.3139303 39.966703,24.0166627 41,24 L42.85,10 L43.38,6 L43.71,3.5 C43.9863854,3.75925042 44.1662564,4.10488496 44.22,4.48 L44.62,7.48 L45.15,11.48 L47,25.48 C47,25.48 51,25.48 51,28.48 Z" id="Shape" fill="#3F51B5"/><rect id="Rectangle-path" fill="#0377BC" x="36" y="41" width="19" height="6" rx="1"/><rect id="Rectangle-path" fill="#02A9F4" x="36" y="41" width="16" height="6" rx="1"/><path d="M44.121,30 C43.8360148,29.999863 43.5646265,29.8781401 43.3749964,29.6654031 C43.1853664,29.4526661 43.0955116,29.1691274 43.128,28.886 L43.528,25.423 C43.8107091,24.5737908 44.6049691,24.0006508 45.5,24 C46.3957672,23.99979 47.1910582,24.5730925 47.474,25.423 L47.874,28.886 C47.9065284,29.1694738 47.8164132,29.4533424 47.6263382,29.66615 C47.4362633,29.8789575 47.1643337,30.0004335 46.879,30 L44.121,30 Z" id="Shape" fill="#37474F"/><path d="M7,31 L3,31 C1.8954305,31 1,30.1045695 1,29 L1,23 C1,21.8954305 1.8954305,21 3,21 L7,21 C8.1045695,21 9,21.8954305 9,23 L9,29 C9,30.1045695 8.1045695,31 7,31 Z M3,23 L3,29 L7,29 L7,23 L3,23 Z" id="Shape" fill="#000000"/><path d="M5,56 L2,56 C0.8954305,56 1.3527075e-16,55.1045695 0,54 L0,48 C-1.3527075e-16,46.8954305 0.8954305,46 2,46 L6,46 C7.1045695,46 8,46.8954305 8,48 L8,53 C8,53.5522847 7.55228475,54 7,54 C6.44771525,54 6,53.5522847 6,53 L6,48 L2,48 L2,54 L5,54 C5.55228475,54 6,54.4477153 6,55 C6,55.5522847 5.55228475,56 5,56 Z" id="Shape" fill="#000000"/><path d="M27,56 L24,56 C23.4477153,56 23,55.5522847 23,55 C23,54.4477153 23.4477153,54 24,54 L27,54 L27,48 L23,48 L23,53 C23,53.5522847 22.5522847,54 22,54 C21.4477153,54 21,53.5522847 21,53 L21,48 C21,46.8954305 21.8954305,46 23,46 L27,46 C28.1045695,46 29,46.8954305 29,48 L29,54 C29,55.1045695 28.1045695,56 27,56 Z" id="Shape" fill="#000000"/><path d="M26,31 L22,31 C20.8954305,31 20,30.1045695 20,29 L20,23 C20,21.8954305 20.8954305,21 22,21 L26,21 C27.1045695,21 28,21.8954305 28,23 L28,29 C28,30.1045695 27.1045695,31 26,31 Z M22,23 L22,29 L26,29 L26,23 L22,23 Z" id="Shape" fill="#000000"/><path d="M11.85,23 L4,23 C3.44771525,23 3,22.5522847 3,22 L3,19 C3,17.8954305 3.8954305,17 5,17 L12.38,17 C12.9322847,17 13.38,17.4477153 13.38,18 C13.38,18.5522847 12.9322847,19 12.38,19 L5,19 L5,21 L11.85,21 C12.4022847,21 12.85,21.4477153 12.85,22 C12.85,22.5522847 12.4022847,23 11.85,23 Z" id="Shape" fill="#000000"/><path d="M25,23 L17.15,23 C16.5977153,23 16.15,22.5522847 16.15,22 C16.15,21.4477153 16.5977153,21 17.15,21 L24,21 L24,19 L16.62,19 C16.0677153,19 15.62,18.5522847 15.62,18 C15.62,17.4477153 16.0677153,17 16.62,17 L24,17 C25.1045695,17 26,17.8954305 26,19 L26,22 C26,22.5522847 25.5522847,23 25,23 Z" id="Shape" fill="#000000"/><path d="M11.438,54 C10.93554,53.9990438 10.5118116,53.6253925 10.448,53.127 C9.96059886,49.2998291 8.70552519,45.6104568 6.758,42.28 L5.137,39.5 C5.0479089,39.3483861 5.00063428,39.175851 5,39 C5,36.32 7.347,35.311 9.115,35.064 L11.789,14.869 C11.982739,13.5249808 13.1319685,12.5258152 14.4898704,12.5208036 C15.8477722,12.515792 17.0043456,13.5064474 17.208,14.849 L19.885,35.064 C21.653,35.311 24,36.32 24,39 C23.9993657,39.175851 23.9520911,39.3483861 23.863,39.5 L22.242,42.277 C20.2940984,45.60648 19.039305,49.2953481 18.553,53.122 C18.522181,53.3863781 18.3860989,53.627174 18.1755129,53.7899594 C17.9649268,53.9527449 17.6976154,54.023777 17.434,53.987 C17.1707122,53.953584 16.9315069,53.816876 16.769074,53.6069887 C16.6066412,53.3971015 16.5343053,53.1312523 16.568,52.868 C17.0892211,48.7748786 18.4320893,44.829268 20.516,41.268 L21.984,38.752 C21.756,37.038 19.114,37 19,37 C18.4996383,36.9983072 18.0775449,36.627053 18.012,36.131 L15.232,15.131 C15.1679946,14.7746453 14.8555422,14.5169293 14.493519,14.5218885 C14.1314958,14.5268478 13.8262201,14.7930257 13.772,15.151 L10.994,36.131 C10.928155,36.6293153 10.502645,37.0013155 10,37 C9.886,37 7.244,37.038 7.016,38.756 L8.484,41.272 C10.5679107,44.833268 11.9107789,48.7788786 12.432,52.872 C12.4657089,53.1350993 12.3935079,53.4008124 12.2312841,53.6106718 C12.0690603,53.8205312 11.8301058,53.9573419 11.567,53.991 C11.5242602,53.9969831 11.4811565,53.9999903 11.438,54 Z" id="Shape" fill="#000000"/><path d="M23,60 L6,60 C4.8954305,60 4,59.1045695 4,58 L4,54 C4,52.8954305 4.8954305,52 6,52 L23,52 C24.1045695,52 25,52.8954305 25,54 L25,58 C25,59.1045695 24.1045695,60 23,60 Z M6,54 L6,58 L23,58 L23,54 L6,54 Z" id="Shape" fill="#000000"/><path d="M6,48 C5.44771525,48 5,47.5522847 5,47 L5,39 C5,38.4477153 5.44771525,38 6,38 C6.55228475,38 7,38.4477153 7,39 L7,47 C7,47.5522847 6.55228475,48 6,48 Z" id="Shape" fill="#000000"/><path d="M23,48 C22.4477153,48 22,47.5522847 22,47 L22,39 C22,38.4477153 22.4477153,38 23,38 C23.5522847,38 24,38.4477153 24,39 L24,47 C24,47.5522847 23.5522847,48 23,48 Z" id="Shape" fill="#000000"/><path d="M11.32,27 L8,27 C7.44771525,27 7,26.5522847 7,26 C7,25.4477153 7.44771525,25 8,25 L11.32,25 C11.8722847,25 12.32,25.4477153 12.32,26 C12.32,26.5522847 11.8722847,27 11.32,27 Z" id="Shape" fill="#000000"/><path d="M21,27 L17.68,27 C17.1277153,27 16.68,26.5522847 16.68,26 C16.68,25.4477153 17.1277153,25 17.68,25 L21,25 C21.5522847,25 22,25.4477153 22,26 C22,26.5522847 21.5522847,27 21,27 Z" id="Shape" fill="#000000"/><path d="M15.879,43 L13.121,43 C12.5508341,42.9997587 12.0078765,42.7561779 11.6285812,42.3304734 C11.249286,41.9047689 11.0697159,41.3374161 11.135,40.771 L11.535,37.309 C11.5431712,37.2409785 11.558249,37.173966 11.58,37.109 C11.9992688,35.850734 13.1767196,35.0019774 14.503,35.0019774 C15.8292804,35.0019774 17.0067312,35.850734 17.426,37.109 C17.447751,37.173966 17.4628288,37.2409785 17.471,37.309 L17.871,40.771 C17.9364058,41.3384561 17.7560546,41.9067997 17.375424,42.3327161 C16.9947935,42.7586325 16.4502112,43.0014721 15.879,43 Z M13.505,37.657 L13.121,41 L15.879,41 L15.5,37.657 C15.3297772,37.25856 14.9382785,37.000087 14.505,37.000087 C14.0717215,37.000087 13.6802228,37.25856 13.51,37.657 L13.505,37.657 Z" id="Shape" fill="#000000"/><path d="M38,19 L34,19 C32.8954305,19 32,18.1045695 32,17 L32,11 C32,9.8954305 32.8954305,9 34,9 L38,9 C39.1045695,9 40,9.8954305 40,11 L40,17 C40,18.1045695 39.1045695,19 38,19 Z M34,11 L34,17 L38,17 L38,11 L34,11 Z" id="Shape" fill="#000000"/><path d="M36,44 L33,44 C31.8954305,44 31,43.1045695 31,42 L31,36 C31,34.8954305 31.8954305,34 33,34 L37,34 C38.1045695,34 39,34.8954305 39,36 L39,41 C39,41.5522847 38.5522847,42 38,42 C37.4477153,42 37,41.5522847 37,41 L37,36 L33,36 L33,42 L36,42 C36.5522847,42 37,42.4477153 37,43 C37,43.5522847 36.5522847,44 36,44 Z" id="Shape" fill="#000000"/><path d="M58,44 L55,44 C54.4477153,44 54,43.5522847 54,43 C54,42.4477153 54.4477153,42 55,42 L58,42 L58,36 L54,36 L54,41 C54,41.5522847 53.5522847,42 53,42 C52.4477153,42 52,41.5522847 52,41 L52,36 C52,34.8954305 52.8954305,34 54,34 L58,34 C59.1045695,34 60,34.8954305 60,36 L60,42 C60,43.1045695 59.1045695,44 58,44 Z" id="Shape" fill="#000000"/><path d="M57,19 L53,19 C51.8954305,19 51,18.1045695 51,17 L51,11 C51,9.8954305 51.8954305,9 53,9 L57,9 C58.1045695,9 59,9.8954305 59,11 L59,17 C59,18.1045695 58.1045695,19 57,19 Z M53,11 L53,17 L57,17 L57,11 L53,11 Z" id="Shape" fill="#000000"/><path d="M42.85,11 L35,11 C34.4477153,11 34,10.5522847 34,10 L34,7 C34,5.8954305 34.8954305,5 36,5 L43.38,5 C43.9322847,5 44.38,5.44771525 44.38,6 C44.38,6.55228475 43.9322847,7 43.38,7 L36,7 L36,9 L42.85,9 C43.4022847,9 43.85,9.44771525 43.85,10 C43.85,10.5522847 43.4022847,11 42.85,11 Z" id="Shape" fill="#000000"/><path d="M56,11 L48.15,11 C47.5977153,11 47.15,10.5522847 47.15,10 C47.15,9.44771525 47.5977153,9 48.15,9 L55,9 L55,7 L47.62,7 C47.0677153,7 46.62,6.55228475 46.62,6 C46.62,5.44771525 47.0677153,5 47.62,5 L55,5 C56.1045695,5 57,5.8954305 57,7 L57,10 C57,10.5522847 56.5522847,11 56,11 Z" id="Shape" fill="#000000"/><path d="M42.438,42 C41.93554,41.9990438 41.5118116,41.6253925 41.448,41.127 C40.9605989,37.2998291 39.7055252,33.6104568 37.758,30.28 L36.137,27.5 C36.0479089,27.3483861 36.0006343,27.175851 36,27 C36,24.32 38.347,23.311 40.115,23.064 L42.789,2.869 C42.982739,1.52498076 44.1319685,0.525815219 45.4898704,0.520803587 C46.8477722,0.515791954 48.0043456,1.50644743 48.208,2.849 L50.885,23.064 C52.653,23.311 55,24.32 55,27 C54.9993657,27.175851 54.9520911,27.3483861 54.863,27.5 L53.242,30.277 C51.2940984,33.60648 50.039305,37.2953481 49.553,41.122 C49.521395,41.3860282 49.3851114,41.6263138 49.1747273,41.7889431 C48.9643431,41.9515725 48.6974747,42.0229282 48.434,41.987 C48.1707122,41.953584 47.9315069,41.816876 47.769074,41.6069887 C47.6066412,41.3971015 47.5343053,41.1312523 47.568,40.868 C48.0892211,36.7748786 49.4320893,32.829268 51.516,29.268 L52.984,26.752 C52.756,25.038 50.114,25 50,25 C49.4996383,24.9983072 49.0775449,24.627053 49.012,24.131 L46.232,3.131 C46.1679946,2.77464526 45.8555422,2.51692932 45.493519,2.52188855 C45.1314958,2.52684777 44.8262201,2.79302574 44.772,3.151 L41.994,24.131 C41.928155,24.6293153 41.502645,25.0013155 41,25 C40.886,25 38.244,25.038 38.016,26.756 L39.484,29.272 C41.5679107,32.833268 42.9107789,36.7788786 43.432,40.872 C43.4657089,41.1350993 43.3935079,41.4008124 43.2312841,41.6106718 C43.0690603,41.8205312 42.8301058,41.9573419 42.567,41.991 C42.5242602,41.9969831 42.4811565,41.9999903 42.438,42 Z" id="Shape" fill="#000000"/><path d="M54,48 L37,48 C35.8954305,48 35,47.1045695 35,46 L35,42 C35,40.8954305 35.8954305,40 37,40 L54,40 C55.1045695,40 56,40.8954305 56,42 L56,46 C56,47.1045695 55.1045695,48 54,48 Z M37,42 L37,46 L54,46 L54,42 L37,42 Z" id="Shape" fill="#000000"/><path d="M37,36 C36.4477153,36 36,35.5522847 36,35 L36,27 C36,26.4477153 36.4477153,26 37,26 C37.5522847,26 38,26.4477153 38,27 L38,35 C38,35.5522847 37.5522847,36 37,36 Z" id="Shape" fill="#000000"/><path d="M54,36 C53.4477153,36 53,35.5522847 53,35 L53,27 C53,26.4477153 53.4477153,26 54,26 C54.5522847,26 55,26.4477153 55,27 L55,35 C55,35.5522847 54.5522847,36 54,36 Z" id="Shape" fill="#000000"/><path d="M42.32,15 L39,15 C38.4477153,15 38,14.5522847 38,14 C38,13.4477153 38.4477153,13 39,13 L42.32,13 C42.8722847,13 43.32,13.4477153 43.32,14 C43.32,14.5522847 42.8722847,15 42.32,15 Z" id="Shape" fill="#000000"/><path d="M52,15 L48.68,15 C48.1277153,15 47.68,14.5522847 47.68,14 C47.68,13.4477153 48.1277153,13 48.68,13 L52,13 C52.5522847,13 53,13.4477153 53,14 C53,14.5522847 52.5522847,15 52,15 Z" id="Shape" fill="#000000"/><path d="M46.879,31 L44.121,31 C43.5508341,30.9997587 43.0078765,30.7561779 42.6285812,30.3304734 C42.249286,29.9047689 42.0697159,29.3374161 42.135,28.771 L42.535,25.309 C42.5431712,25.2409785 42.558249,25.173966 42.58,25.109 C42.9992688,23.850734 44.1767196,23.0019774 45.503,23.0019774 C46.8292804,23.0019774 48.0067312,23.850734 48.426,25.109 C48.447751,25.173966 48.4628288,25.2409785 48.471,25.309 L48.871,28.771 C48.9364058,29.3384561 48.7560546,29.9067997 48.375424,30.3327161 C47.9947935,30.7586325 47.4502112,31.0014721 46.879,31 Z M44.505,25.657 L44.121,29 L46.879,29 L46.5,25.657 C46.3297772,25.25856 45.9382785,25.000087 45.505,25.000087 C45.0717215,25.000087 44.6802228,25.25856 44.51,25.657 L44.505,25.657 Z" id="Shape" fill="#000000"/><path d="M30,4 C29.4477153,4 29,3.55228475 29,3 L29,1 C29,0.44771525 29.4477153,1.01453063e-16 30,0 C30.5522847,-1.01453063e-16 31,0.44771525 31,1 L31,3 C31,3.55228475 30.5522847,4 30,4 Z" id="Shape" fill="#000000"/><path d="M30,10 C29.4477153,10 29,9.55228475 29,9 L29,7 C29,6.44771525 29.4477153,6 30,6 C30.5522847,6 31,6.44771525 31,7 L31,9 C31,9.55228475 30.5522847,10 30,10 Z" id="Shape" fill="#000000"/><path d="M30,16 C29.4477153,16 29,15.5522847 29,15 L29,13 C29,12.4477153 29.4477153,12 30,12 C30.5522847,12 31,12.4477153 31,13 L31,15 C31,15.5522847 30.5522847,16 30,16 Z" id="Shape" fill="#000000"/><path d="M30,22 C29.4477153,22 29,21.5522847 29,21 L29,19 C29,18.4477153 29.4477153,18 30,18 C30.5522847,18 31,18.4477153 31,19 L31,21 C31,21.5522847 30.5522847,22 30,22 Z" id="Shape" fill="#000000"/><path d="M30,28 C29.4477153,28 29,27.5522847 29,27 L29,25 C29,24.4477153 29.4477153,24 30,24 C30.5522847,24 31,24.4477153 31,25 L31,27 C31,27.5522847 30.5522847,28 30,28 Z" id="Shape" fill="#000000"/><path d="M30,34 C29.4477153,34 29,33.5522847 29,33 L29,31 C29,30.4477153 29.4477153,30 30,30 C30.5522847,30 31,30.4477153 31,31 L31,33 C31,33.5522847 30.5522847,34 30,34 Z" id="Shape" fill="#000000"/><path d="M40,59 C39.4477153,59 39,58.5522847 39,58 L39,53 C39,52.4477153 39.4477153,52 40,52 C40.5522847,52 41,52.4477153 41,53 L41,58 C41,58.5522847 40.5522847,59 40,59 Z" id="Shape" fill="#000000"/><path d="M51,59 C50.4477153,59 50,58.5522847 50,58 L50,53 C50,52.4477153 50.4477153,52 51,52 C51.5522847,52 52,52.4477153 52,53 L52,58 C52,58.5522847 51.5522847,59 51,59 Z" id="Shape" fill="#000000"/><path d="M44,55 C43.4477153,55 43,54.5522847 43,54 L43,51 C43,50.4477153 43.4477153,50 44,50 C44.5522847,50 45,50.4477153 45,51 L45,54 C45,54.5522847 44.5522847,55 44,55 Z" id="Shape" fill="#000000"/><path d="M47,55 C46.4477153,55 46,54.5522847 46,54 L46,51 C46,50.4477153 46.4477153,50 47,50 C47.5522847,50 48,50.4477153 48,51 L48,54 C48,54.5522847 47.5522847,55 47,55 Z" id="Shape" fill="#000000"/></g></g></svg>
