<svg id="Capa_1" enable-background="new 0 0 512 512" height="512" viewBox="0 0 512 512" width="512" xmlns="http://www.w3.org/2000/svg" xmlns:xlink="http://www.w3.org/1999/xlink"><linearGradient id="SVGID_1_" gradientUnits="userSpaceOnUse" x1="256" x2="256" y1="512" y2="45"><stop offset="0" stop-color="#addcff"/><stop offset=".5028" stop-color="#eaf6ff"/><stop offset="1" stop-color="#eaf6ff"/></linearGradient><linearGradient id="SVGID_2_" gradientUnits="userSpaceOnUse" x1="256" x2="256" y1="450" y2="0"><stop offset="0" stop-color="#5558ff"/><stop offset="1" stop-color="#00c0ff"/></linearGradient><g><g><g><path d="m256 225c-49.629 0-90 40.371-90 90s40.371 90 90 90 90-40.371 90-90-40.371-90-90-90zm90-90c0-49.629-40.371-90-90-90s-90 40.371-90 90 40.371 90 90 90 90-40.371 90-90zm-30 347h-45v-47c0-8.291-6.709-15-15-15s-15 6.709-15 15v47h-45c-8.291 0-15 6.709-15 15s6.709 15 15 15h120c8.291 0 15-6.709 15-15s-6.709-15-15-15z" fill="url(#SVGID_1_)"/></g></g><g><g><path d="m256 300c-8.401 0-15 6.599-15 15s6.599 15 15 15 15-6.599 15-15-6.599-15-15-15zm0-180c-8.401 0-15 6.599-15 15s6.599 15 15 15 15-6.599 15-15-6.599-15-15-15zm120-120h-240c-8.401 0-15 6.599-15 15v420c0 8.401 6.599 15 15 15h240c8.401 0 15-6.599 15-15v-420c0-8.401-6.599-15-15-15zm-120 390c-41.4 0-75-33.6-75-75s33.6-75 75-75 75 33.6 75 75-33.6 75-75 75zm0-180c-41.4 0-75-33.6-75-75s33.6-75 75-75 75 33.6 75 75-33.6 75-75 75zm251.605 64.395-30-30c-4.277-4.277-10.781-5.581-16.348-3.252-5.595 2.314-9.257 7.793-9.257 13.857v60c0 8.276-6.738 15-15 15-8.291 0-15 6.709-15 15s6.709 15 15 15c24.814 0 45-20.186 45-45v-23.789l4.395 4.395c5.859 5.859 15.352 5.859 21.211 0s5.859-15.352-.001-21.211zm-452-240c-4.277-4.292-10.752-5.596-16.348-3.252-5.595 2.314-9.257 7.793-9.257 13.857v60c0 8.276-6.738 15-15 15-8.291 0-15 6.709-15 15s6.709 15 15 15c24.814 0 45-20.186 45-45v-23.789l4.395 4.395c5.859 5.859 15.352 5.859 21.211 0s5.859-15.352 0-21.211z" fill="url(#SVGID_2_)"/></g></g></g></svg>