<?xml version="1.0"?><svg width="698.52008" height="800.90808" xmlns="http://www.w3.org/2000/svg">
 <title>Legos</title>

 <metadata id="metadata2835">image/svg+xmlLegoBlocks brunurb2007-11-14brunurbThis work is hereby released into the Public Domain. To view a copy of the public domain dedication, visit http://creativecommons.org/licenses/publicdomain/ or send a letter to Creative Commons, 171 Second Street, Suite 300, San Francisco, California, 94105, USA.openclipart.orgopenclipart.orglegoblockbrickplasticplaygametoykidchildrenpuzzlebuildLego type construction bricks</metadata>
 <g>
  <title>Layer 1</title>
  <g id="g2860" transform="matrix(5.7244485,0,0,5.7244485,-582.68175,-2300.9683) " fill="#f5fa40">
   <path id="path2862"/>
  </g>
  <g id="g2872" transform="matrix(5.7244485,0,0,5.7244485,-582.68175,-2300.9683) " fill="#f5fa40">
   <path id="path2874"/>
  </g>
  <g id="g2884" transform="matrix(5.7244485,0,0,5.7244485,-582.68175,-2300.9683) " fill="#f5fa40">
   <path id="path2886"/>
  </g>
  <g id="g2896" transform="matrix(5.7244485,0,0,5.7244485,-582.68175,-2300.9683) " fill="#f5fa40">
   <path id="path2898"/>
  </g>
  <g id="g2908" transform="matrix(5.7244485,0,0,5.7244485,-582.68175,-2300.9683) " fill="#f5fa40">
   <path id="path2910"/>
  </g>
  <g id="g2920" transform="matrix(5.7244485,0,0,5.7244485,-582.68175,-2300.9683) " fill="#f5fa40">
   <path id="path2922"/>
  </g>
  <g id="g2932" transform="matrix(5.7244485,0,0,5.7244485,-582.68175,-2300.9683) " fill="#f5fa40">
   <path id="path2934"/>
  </g>
  <g id="g2944" transform="matrix(5.7244485,0,0,5.7244485,-582.68175,-2300.9683) " fill="#f5fa40">
   <path id="path2946"/>
  </g>
  <g id="g2968" transform="matrix(5.7244485,0,0,5.7244485,-582.68175,-2300.9683) " fill="#ff212c">
   <path id="path2970"/>
  </g>
  <g id="g2980" transform="matrix(5.7244485,0,0,5.7244485,-582.68175,-2300.9683) " fill="#ff212c">
   <path id="path2982"/>
  </g>
  <g id="g2992" transform="matrix(5.7244485,0,0,5.7244485,-582.68175,-2300.9683) " fill="#ff212c">
   <path id="path2994"/>
  </g>
  <g id="g3004" transform="matrix(5.7244485,0,0,5.7244485,-582.68175,-2300.9683) " fill="#ff212c">
   <path id="path3006"/>
  </g>
  <g id="g3016" transform="matrix(5.7244485,0,0,5.7244485,-582.68175,-2300.9683) " fill="#ff212c">
   <path id="path3018"/>
  </g>
  <g id="g3028" transform="matrix(5.7244485,0,0,5.7244485,-582.68175,-2300.9683) " fill="#ff212c">
   <path id="path3030"/>
  </g>
  <g id="g3040" transform="matrix(5.7244485,0,0,5.7244485,-582.68175,-2300.9683) " fill="#ff212c">
   <path id="path3042"/>
  </g>
  <g id="g3052" transform="matrix(5.7244485,0,0,5.7244485,-582.68175,-2300.9683) " fill="#ff212c">
   <path id="path3054"/>
  </g>
  <g id="g3076" transform="matrix(5.7244485,0,0,5.7244485,-582.68175,-2300.9683) " fill="#2da6ff">
   <path id="path3078"/>
  </g>
  <g id="g3088" transform="matrix(5.7244485,0,0,5.7244485,-582.68175,-2300.9683) " fill="#2da6ff">
   <path id="path3090"/>
  </g>
  <g id="g3100" transform="matrix(5.7244485,0,0,5.7244485,-582.68175,-2300.9683) " fill="#2da6ff">
   <path id="path3102"/>
  </g>
  <g id="g3112" transform="matrix(5.7244485,0,0,5.7244485,-582.68175,-2300.9683) " fill="#2da6ff">
   <path id="path3114"/>
  </g>
  <g id="g3124" transform="matrix(5.7244485,0,0,5.7244485,-582.68175,-2300.9683) " fill="#2da6ff">
   <path id="path3126"/>
  </g>
  <g id="g3136" transform="matrix(5.7244485,0,0,5.7244485,-582.68175,-2300.9683) " fill="#2da6ff">
   <path id="path3138"/>
  </g>
  <g id="g3148" transform="matrix(5.7244485,0,0,5.7244485,-582.68175,-2300.9683) " fill="#2da6ff">
   <path id="path3150"/>
  </g>
  <g id="g3160" transform="matrix(5.7244485,0,0,5.7244485,-582.68175,-2300.9683) " fill="#2da6ff">
   <path id="path3162"/>
  </g>
  <g id="g3184" transform="matrix(5.7244485,0,0,5.7244485,-582.68175,-2300.9683) " fill="#2da6ff">
   <path id="path3186"/>
  </g>
  <g id="g3196" transform="matrix(5.7244485,0,0,5.7244485,-582.68175,-2300.9683) " fill="#2da6ff">
   <path id="path3198"/>
  </g>
  <g id="g3208" transform="matrix(5.7244485,0,0,5.7244485,-582.68175,-2300.9683) " fill="#2da6ff">
   <path id="path3210"/>
  </g>
  <g id="g3220" transform="matrix(5.72445,0,0,5.72445,-582.682,-2300.97) " fill="#2da6ff">
   <path id="path3222"/>
  </g>
  <g id="svg_3" transform="matrix(5.72445 0 0 5.72445 -582.682 -2300.97)" fill="#c00104">
   <path id="svg_4" d="m193.187653,477.702057l0,4.554016c2.411011,2.142975 10.71402,2.009979 12.722992,-0.268005l0,-4.688019l-12.722992,0.402008z"/>
  </g>
  <g id="svg_5" transform="matrix(5.72445 0 0 5.72445 -582.682 -2300.97)" fill="#ff212c">
   <path id="svg_6" d="m193.187653,477.368073c0,-0.850006 2.847992,-1.540009 6.360992,-1.540009c3.514008,0 6.362,0.690002 6.362,1.540009c0,0.850983 -2.847992,1.539978 -6.362,1.539978c-3.513,0 -6.360992,-0.688995 -6.360992,-1.539978z"/>
  </g>
  <g id="svg_7" transform="matrix(5.72445 0 0 5.72445 -582.682 -2300.97)" fill="#c00104">
   <path id="svg_8" d="m177.585663,482.190063l0,4.553986c2.411011,2.143005 10.713989,2.009003 12.722992,-0.267975l0,-4.688019l-12.722992,0.402008z"/>
  </g>
  <g id="svg_9" transform="matrix(5.72445 0 0 5.72445 -582.682 -2300.97)" fill="#ff212c">
   <path id="svg_10" d="m177.585663,481.856049c0,-0.849976 2.847992,-1.539978 6.362,-1.539978c3.513,0 6.360992,0.690002 6.360992,1.539978c0,0.851013 -2.847992,1.540009 -6.360992,1.540009c-3.514008,0 -6.362,-0.688995 -6.362,-1.540009z"/>
  </g>
  <g id="svg_11" transform="matrix(5.72445 0 0 5.72445 -582.682 -2300.97)" fill="#c00104">
   <path id="svg_12" d="m161.983673,486.67807l0,4.553986c2.41098,2.143005 10.713989,2.009003 12.722992,-0.268005l0,-4.687988l-12.722992,0.402008z"/>
  </g>
  <g id="svg_13" transform="matrix(5.72445 0 0 5.72445 -582.682 -2300.97)" fill="#ff212c">
   <path id="svg_14" d="m161.983673,486.344055c0,-0.850983 2.847992,-1.540009 6.362,-1.540009c3.513,0 6.360992,0.689026 6.360992,1.540009c0,0.851013 -2.847992,1.540009 -6.360992,1.540009c-3.514008,0 -6.362,-0.688995 -6.362,-1.540009z"/>
  </g>
  <g id="svg_15" transform="matrix(5.72445, 0, 0, 5.72445, -582.682, -2300.97)" fill="#002ec4">
   <path id="svg_16" d="m120.156288,469.342072l0,22.500977l25.181023,10.179016l0,-22.501007l-25.181023,-10.178986z" fill="#c90404"/>
  </g>
  <g id="svg_17" transform="matrix(5.72445, 0, 0, 5.72445, -582.682, -2300.97)" fill="#2da6ff">
   <path id="svg_18" d="m207.26796,482.367065l0,-20.929016l-62.414001,18.21701l0,22.501007l62.414001,-19.789001z" fill="#ff0000"/>
  </g>
  <g id="svg_19" transform="matrix(5.72445, 0, 0, 5.72445, -582.682, -2300.97)" fill="#2da6ff">
   <path id="svg_20" d="m119.806923,469.60907l62.012032,-18.886017l25.315002,10.714996l-62.146011,18.484009l-25.181023,-10.312988z" fill="#ed0000"/>
  </g>
  <g id="svg_21" transform="matrix(5.72445, 0, 0, 5.72445, -582.682, -2300.97)" fill="#002ec4">
   <path id="svg_22" d="m140.340652,470.948059l0,4.554016c2.41098,2.142975 10.713989,2.008972 12.722977,-0.268005l0,-4.688019l-12.722977,0.402008z" fill="#c90404"/>
  </g>
  <g id="svg_23" transform="matrix(5.72445, 0, 0, 5.72445, -582.682, -2300.97)" fill="#2da6ff">
   <path id="svg_24" d="m140.340637,470.614075c0,-0.850006 2.847992,-1.540009 6.362,-1.540009c3.513,0 6.360992,0.690002 6.360992,1.540009c0,0.850983 -2.847992,1.539978 -6.360992,1.539978c-3.514008,0 -6.362,-0.688995 -6.362,-1.539978z" fill="#ff0000"/>
  </g>
  <g id="svg_25" transform="matrix(5.72445, 0, 0, 5.72445, -582.682, -2300.97)" fill="#002ec4">
   <path id="svg_26" d="m156.386322,466.327057l0,4.554016c2.410004,2.143982 10.712997,2.009979 12.722992,-0.266998l0,-4.688019l-12.722992,0.401001z" fill="#c90404"/>
  </g>
  <g id="svg_27" transform="matrix(5.72445, 0, 0, 5.72445, -582.682, -2300.97)" fill="#2da6ff">
   <path id="svg_28" d="m156.211639,465.993073c0,-0.850006 2.847992,-1.540009 6.360992,-1.540009c3.514008,0 6.362,0.690002 6.362,1.540009c0,0.850983 -2.847992,1.540985 -6.362,1.540985c-3.513,0 -6.360992,-0.690002 -6.360992,-1.540985z" fill="#ff0000"/>
  </g>
  <g id="svg_29" transform="matrix(5.72445 0 0 5.72445 -582.682 -2300.97)" fill="#002ec4">
   <path id="svg_30" d="m171.855316,461.706055l0,4.554993c2.410995,2.143005 10.714005,2.009003 12.723007,-0.267975l0,-4.688019l-12.723007,0.401001z" fill="#c90404"/>
  </g>
  <g id="svg_31" transform="matrix(5.72445, 0, 0, 5.72445, -582.682, -2300.97)" fill="#2da6ff">
   <path id="svg_32" d="m171.680634,461.373047c0,-0.850983 2.848007,-1.539978 6.361008,-1.539978c3.513992,0 6.362,0.688995 6.362,1.539978c0,0.850006 -2.848007,1.540009 -6.362,1.540009c-3.513,0 -6.361008,-0.690002 -6.361008,-1.540009z" fill="#ff0000"/>
  </g>
  <g id="svg_33" transform="matrix(5.72445 0 0 5.72445 -582.682 -2300.97)" fill="#002ec4">
   <path id="svg_34" d="m186.789322,457.220062l0,4.553986c2.410004,2.143005 10.712997,2.009003 12.722992,-0.267975l0,-4.688019l-12.722992,0.402008z" fill="#c90404"/>
  </g>
  <g id="svg_35" transform="matrix(5.72445, 0, 0, 5.72445, -582.682, -2300.97)" fill="#2da6ff">
   <path id="svg_36" d="m186.614639,456.886047c0,-0.850983 2.847992,-1.539978 6.360992,-1.539978c3.514008,0 6.362,0.688995 6.362,1.539978c0,0.851013 -2.847992,1.540009 -6.362,1.540009c-3.513,0 -6.360992,-0.688995 -6.360992,-1.540009z" fill="#ff0000"/>
  </g>
  <g id="svg_37" transform="matrix(5.72445 0 0 5.72445 -582.682 -2300.97)" fill="#002ec4">
   <path id="svg_38" d="m174.400314,451.796051l0,4.554016c2.411011,2.143005 10.714005,2.009979 12.723999,-0.268005l0,-4.687988l-12.723999,0.401978z" fill="#c90404"/>
  </g>
  <g id="svg_39" transform="matrix(5.72445, 0, 0, 5.72445, -582.682, -2300.97)" fill="#2da6ff">
   <path id="svg_40" d="m174.225632,451.462067c0,-0.850006 2.848999,-1.540009 6.362,-1.540009c3.514008,0 6.362,0.690002 6.362,1.540009c0,0.850983 -2.847992,1.540009 -6.362,1.540009c-3.513,0 -6.362,-0.689026 -6.362,-1.540009z" fill="#ff0000"/>
  </g>
  <g id="svg_41" transform="matrix(5.72445 0 0 5.72445 -582.682 -2300.97)" fill="#002ec4">
   <path id="svg_42" d="m158.799316,456.284058l0,4.554016c2.410004,2.142975 10.712997,2.008972 12.723007,-0.268005l0,-4.688019l-12.723007,0.402008z" fill="#c90404"/>
  </g>
  <g id="svg_43" transform="matrix(5.72445, 0, 0, 5.72445, -582.682, -2300.97)" fill="#2da6ff">
   <path id="svg_44" d="m158.624634,455.950073c0,-0.850006 2.848007,-1.540009 6.361008,-1.540009c3.513992,0 6.362,0.690002 6.362,1.540009c0,0.850983 -2.848007,1.539978 -6.362,1.539978c-3.513,0 -6.361008,-0.688995 -6.361008,-1.539978z" fill="#ff0000"/>
  </g>
  <g id="svg_45" transform="matrix(5.72445 0 0 5.72445 -582.682 -2300.97)" fill="#002ec4">
   <path id="svg_46" d="m143.022629,460.772064l0,4.553986c2.410004,2.143005 10.713013,2.009003 12.723007,-0.267975l0,-4.688019l-12.723007,0.402008z" fill="#c90404"/>
  </g>
  <g id="svg_47" transform="matrix(5.72445, 0, 0, 5.72445, -582.682, -2300.97)" fill="#2da6ff">
   <path id="svg_48" d="m143.022629,460.438049c0,-0.850983 2.848007,-1.539978 6.361008,-1.539978c3.513992,0 6.362,0.688995 6.362,1.539978c0,0.851013 -2.848007,1.540009 -6.362,1.540009c-3.513,0 -6.361008,-0.688995 -6.361008,-1.540009z" fill="#ff0000"/>
  </g>
  <g id="svg_49" transform="matrix(5.72445 0 0 5.72445 -582.682 -2300.97)" fill="#002ec4">
   <path id="svg_50" d="m127.595329,465.259064l0,4.554993c2.411003,2.143005 10.713005,2.009003 12.723,-0.268005l0,-4.687988l-12.723,0.401001z" fill="#c90404"/>
  </g>
  <g id="svg_51" transform="matrix(5.72445, 0, 0, 5.72445, -582.682, -2300.97)" fill="#2da6ff">
   <path id="svg_52" d="m127.420631,464.926056c0,-0.850983 2.848015,-1.540009 6.361015,-1.540009c3.513992,0 6.362,0.689026 6.362,1.540009c0,0.850006 -2.848007,1.540009 -6.362,1.540009c-3.513,0 -6.361015,-0.690002 -6.361015,-1.540009z" fill="#ff0000"/>
  </g>
 </g>
</svg>