<svg height="424pt" viewBox="0 -25 424 424" width="424pt" xmlns="http://www.w3.org/2000/svg" xmlns:xlink="http://www.w3.org/1999/xlink"><linearGradient id="a"><stop offset=".322" stop-color="#a163f5"/><stop offset=".466" stop-color="#b074ee"/><stop offset=".752" stop-color="#d8a1dd"/><stop offset=".898" stop-color="#efbad3"/></linearGradient><linearGradient id="b" gradientUnits="userSpaceOnUse" x1="212" x2="212" xlink:href="#a" y1="441.308" y2="-67.751"/><linearGradient id="c" gradientUnits="userSpaceOnUse" x1="119.603" x2="119.603" xlink:href="#a" y1="441.308" y2="-67.751"/><linearGradient id="d" gradientUnits="userSpaceOnUse" x1="51.54" x2="51.54" xlink:href="#a" y1="441.308" y2="-67.751"/><linearGradient id="e" gradientUnits="userSpaceOnUse" x1="187.666" x2="187.666" xlink:href="#a" y1="441.308" y2="-67.751"/><path d="m304.691406 164.980469c-10.585937-.046875-19.984375 6.761719-23.238281 16.835937h-44.96875v-10.722656c0-3.867188-3.132813-7-7-7h-35.445313c-3.863281 0-7 3.132812-7 7v10.722656h-45.382812c-3.472656-11.550781-14.890625-18.808594-26.820312-17.054687-11.933594 1.753906-20.777344 11.992187-20.777344 24.054687 0 12.058594 8.84375 22.296875 20.777344 24.050782 11.929687 1.757812 23.347656-5.503907 26.820312-17.050782h26.765625c-13.132813 12.101563-20.597656 29.148438-20.585937 47.003906v27.730469h-9.492188c-3.867188 0-7 3.136719-7 7v35.445313c0 3.863281 3.132812 7 7 7h35.441406c3.867188 0 7-3.136719 7-7v-35.445313c0-3.863281-3.132812-7-7-7h-11.949218v-27.730469c-.015626-17.941406 9.609374-34.507812 25.199218-43.386718v7.101562c0 3.863282 3.136719 7 7 7h35.445313c3.867187 0 7-3.136718 7-7v-7.113281c15.617187 8.859375 25.25 25.445313 25.199219 43.402344v27.730469h-11.949219c-3.867188 0-7 3.132812-7 7v35.441406c0 3.867187 3.132812 7 7 7h35.445312c3.863281 0 7-3.132813 7-7v-35.445313c0-3.863281-3.136719-7-7-7h-9.496093v-27.730469c.042968-17.851562-7.40625-34.902343-20.527344-47.003906h26.292968c3.414063 12.054688 15.457032 19.523438 27.773438 17.21875 12.320312-2.304687 20.847656-13.621094 19.667969-26.097656-1.175781-12.476562-11.671875-21.996094-24.203125-21.957031zm-137.902344 141.015625h-21.445312v-21.445313h21.441406zm111.402344 0h-21.453125v-21.445313h21.445313zm-159.359375-106.875c-4.210937.199218-8.125-2.183594-9.875-6.023438-1.75-3.835937-.988281-8.355468 1.921875-11.40625 2.914063-3.054687 7.390625-4.027344 11.304688-2.457031 3.917968 1.570313 6.484375 5.363281 6.484375 9.582031.121093 5.558594-4.277344 10.167969-9.835938 10.304688zm82.207031.414062v-21.441406h21.445313v8.308594c-.007813.023437-.019531.046875-.023437.070312-.453126 1.402344-.441407 2.917969.023437 4.316406v8.746094zm103.652344-.886718c-5.371094-.253907-9.542968-4.769532-9.375-10.144532.167969-5.371094 4.617188-9.617187 9.996094-9.53125 5.375.085938 9.6875 4.464844 9.6875 9.84375-.140625 5.554688-4.75 9.949219-10.308594 9.828125zm0 0" fill="url(#b)"/><path d="m377 0h-330c-25.945312.0273438-46.9726562 21.054688-47 47v280.089844c.0273438 25.945312 21.054688 46.96875 47 47h330c25.945312-.03125 46.972656-21.054688 47-47v-280.089844c-.027344-25.945312-21.054688-46.9726562-47-47zm-330 14h330c18.214844.019531 32.980469 14.785156 33 33v51.09375h-396v-51.09375c.019531-18.214844 14.785156-32.980469 33-33zm330 346.089844h-330c-18.214844-.023438-32.980469-14.785156-33-33v-214.996094h396v214.996094c-.019531 18.214844-14.785156 32.976562-33 33zm0 0" fill="url(#b)"/><path d="m119.535156 78.59375h.066406c12.203126-.011719 22.101563-9.878906 22.152344-22.082031.023438-12.226563-9.855468-22.167969-22.082031-22.222657h-.070313c-12.09375.183594-21.808593 10.027344-21.824218 22.117188-.019532 12.09375 9.664062 21.96875 21.753906 22.183594zm-5.679687-27.933594c1.523437-1.523437 3.59375-2.375 5.746093-2.371094h.027344c4.414063.128907 7.925782 3.746094 7.917969 8.164063-.007813 4.414063-3.527344 8.023437-7.945313 8.136719h-.023437c-3.296875-.011719-6.265625-2.007813-7.515625-5.058594-1.253906-3.046875-.542969-6.550781 1.792969-8.878906zm0 0" fill="url(#c)"/><path d="m51.46875 78.382812h.070312c12.121094-.144531 21.875-10 21.890626-22.117187.019531-12.121094-9.703126-22.003906-21.820313-22.183594h-.070313c-12.117187.140625-21.871093 9.996094-21.890624 22.113281-.019532 12.121094 9.703124 22.003907 21.820312 22.1875zm.070312-30.300781h.027344c4.429688.105469 7.964844 3.730469 7.957032 8.160157-.007813 4.433593-3.550782 8.046874-7.984376 8.140624h-.023437c-4.433594-.105468-7.96875-3.730468-7.960937-8.164062.007812-4.433594 3.554687-8.046875 7.984374-8.136719zm0 0" fill="url(#d)"/><path d="m187.601562 78.808594h.070313c12.207031-.003906 22.109375-9.878906 22.148437-22.082032.027344-12.230468-9.851562-22.171874-22.082031-22.222656h-.066406c-12.179687.058594-22.027344 9.941406-22.046875 22.117188-.015625 12.179687 9.796875 22.089844 21.976562 22.1875zm.070313-30.304688h.023437c4.46875.054688 8.058594 3.695313 8.050782 8.164063-.007813 4.46875-3.609375 8.097656-8.074219 8.140625h-.027344c-4.46875-.058594-8.058593-3.699219-8.050781-8.164063.007812-4.46875 3.609375-8.101562 8.078125-8.140625zm0 0" fill="url(#e)"/></svg>