<?xml version="1.0" standalone="no"?>
<!DOCTYPE svg PUBLIC "-//W3C//DTD SVG 20010904//EN"
 "http://www.w3.org/TR/2001/REC-SVG-20010904/DTD/svg10.dtd">
<svg version="1.0" xmlns="http://www.w3.org/2000/svg"
 width="1607.000000pt" height="1607.000000pt" viewBox="0 0 1607.000000 1607.000000"
 preserveAspectRatio="xMidYMid meet">
<metadata>
Created by potrace 1.11, written by Peter Selinger 2001-2013
</metadata>
<g transform="translate(0.000000,1607.000000) scale(0.100000,-0.100000)"
fill="#000000" stroke="none">
<path d="M7698 16065 c-1 -2 -59 -6 -128 -9 -69 -4 -145 -8 -170 -11 -112 -9
-197 -17 -225 -21 -16 -2 -55 -6 -85 -9 -30 -4 -68 -9 -85 -11 -16 -3 -50 -7
-75 -10 -25 -2 -67 -9 -95 -14 -27 -6 -68 -12 -90 -15 -22 -3 -51 -7 -65 -10
-14 -3 -38 -7 -55 -10 -16 -3 -43 -8 -60 -12 -16 -3 -39 -7 -50 -9 -61 -9 -86
-14 -145 -28 -36 -8 -76 -17 -90 -20 -14 -2 -97 -22 -185 -44 -135 -34 -200
-52 -325 -87 -68 -20 -126 -38 -190 -60 -41 -14 -78 -25 -83 -25 -5 0 -23 -6
-40 -14 -18 -7 -66 -25 -107 -39 -106 -36 -219 -79 -335 -127 -55 -23 -104
-42 -110 -43 -5 -2 -32 -13 -60 -26 -27 -13 -63 -29 -80 -36 -16 -7 -58 -27
-91 -43 -34 -17 -65 -28 -68 -25 -3 4 -6 1 -6 -5 0 -7 -5 -12 -11 -12 -18 0
-337 -163 -494 -253 -38 -22 -90 -51 -115 -65 -165 -92 -600 -379 -687 -452
-7 -5 -14 -10 -17 -10 -2 0 -15 -9 -28 -20 -12 -10 -78 -62 -146 -114 -113
-87 -167 -130 -227 -181 -12 -11 -45 -39 -73 -62 -27 -24 -63 -55 -80 -70 -16
-16 -61 -55 -98 -88 -82 -72 -434 -423 -519 -518 -33 -37 -71 -80 -85 -95 -72
-80 -99 -112 -140 -162 -25 -30 -49 -60 -55 -66 -10 -11 -17 -20 -134 -169
-39 -49 -74 -94 -78 -100 -26 -32 -168 -232 -214 -300 -29 -44 -56 -82 -59
-85 -3 -3 -10 -14 -17 -25 -7 -11 -30 -49 -53 -85 -23 -36 -46 -74 -53 -85 -7
-11 -14 -22 -17 -25 -3 -3 -11 -16 -19 -30 -8 -14 -49 -83 -90 -155 -42 -71
-82 -141 -89 -155 -7 -14 -28 -54 -48 -90 -69 -126 -134 -257 -134 -268 0 -7
-4 -12 -9 -12 -7 0 -13 -11 -25 -50 -1 -3 -15 -34 -33 -70 -29 -61 -103 -228
-124 -277 -5 -13 -13 -33 -19 -45 -22 -51 -102 -254 -105 -268 -2 -8 -14 -44
-28 -80 -45 -119 -110 -318 -133 -405 -1 -5 -7 -23 -13 -40 -15 -44 -43 -137
-47 -158 -1 -10 -13 -52 -24 -95 -12 -42 -24 -88 -26 -102 -3 -14 -12 -52 -21
-85 -8 -33 -17 -71 -20 -85 -2 -14 -10 -53 -18 -88 -8 -34 -17 -77 -20 -95 -8
-43 -36 -197 -41 -222 -3 -11 -7 -36 -9 -55 -2 -19 -7 -46 -10 -60 -3 -14 -14
-95 -25 -180 -28 -223 -29 -231 -35 -312 -3 -40 -8 -86 -10 -103 -26 -193 -27
-1005 0 -1275 2 -19 6 -68 9 -108 4 -41 8 -88 11 -105 2 -18 6 -54 9 -82 3
-27 10 -84 16 -125 5 -41 13 -93 16 -115 4 -34 19 -127 39 -246 5 -30 32 -162
40 -199 3 -14 8 -38 10 -55 3 -16 8 -37 10 -45 2 -8 7 -26 9 -40 3 -14 15 -63
26 -110 11 -47 23 -96 26 -110 3 -13 26 -97 51 -185 24 -88 47 -171 49 -184 3
-14 8 -29 12 -35 3 -6 7 -15 8 -21 4 -20 107 -320 116 -338 5 -10 11 -26 13
-35 5 -23 83 -223 140 -357 55 -132 62 -146 135 -301 32 -67 61 -131 65 -143
3 -11 11 -21 16 -21 5 0 9 -6 9 -12 0 -12 50 -118 60 -128 3 -3 12 -18 20 -35
33 -66 181 -326 229 -403 28 -45 51 -86 51 -92 0 -5 5 -10 10 -10 6 0 14 -10
19 -23 10 -25 216 -334 238 -355 7 -7 13 -17 13 -22 0 -5 10 -20 22 -34 13
-14 39 -48 58 -77 19 -28 44 -60 55 -72 11 -12 33 -41 49 -65 16 -23 33 -42
37 -42 5 0 9 -5 9 -11 0 -6 6 -16 12 -23 7 -7 29 -32 48 -56 19 -24 41 -49 48
-57 7 -7 11 -13 8 -13 -3 0 5 -10 17 -23 19 -19 63 -70 140 -161 110 -130 487
-512 637 -646 46 -41 92 -83 102 -92 10 -10 18 -15 18 -12 0 3 12 -8 26 -25
14 -17 32 -31 40 -31 8 0 14 -4 14 -8 0 -5 27 -30 61 -58 33 -27 72 -59 87
-72 25 -21 72 -57 222 -172 32 -25 84 -63 115 -85 31 -22 66 -48 77 -57 12
-10 24 -18 28 -18 4 0 20 -11 36 -25 16 -14 34 -25 41 -25 6 0 13 -4 15 -9 3
-8 277 -187 343 -225 17 -9 44 -25 60 -36 17 -11 37 -23 45 -27 8 -4 47 -25
85 -47 39 -23 81 -47 95 -54 14 -7 50 -26 80 -43 110 -62 404 -207 540 -266
19 -8 53 -23 75 -33 22 -9 64 -28 94 -41 30 -13 56 -23 58 -21 2 1 17 -5 34
-13 107 -56 804 -289 952 -319 12 -3 76 -18 142 -35 66 -16 154 -37 195 -46
137 -29 275 -56 310 -61 19 -3 49 -8 65 -11 31 -6 46 -9 105 -17 19 -3 46 -8
60 -10 14 -3 50 -8 80 -11 30 -4 66 -8 80 -10 14 -3 50 -7 80 -10 30 -4 69 -8
85 -10 17 -2 64 -6 105 -10 41 -3 89 -8 105 -10 215 -26 1033 -26 1285 0 19 2
62 6 95 9 110 11 170 17 200 21 17 2 57 7 90 10 33 3 67 8 75 10 8 2 35 7 60
10 58 8 108 16 222 35 89 16 94 17 233 45 72 14 155 33 186 40 30 8 64 16 75
18 10 1 25 6 32 10 6 5 12 6 12 4 0 -3 39 6 88 19 48 14 94 26 102 28 48 12
110 30 145 41 22 8 51 16 65 19 14 2 71 20 128 39 56 19 102 33 102 30 0 -3 6
-1 12 4 7 6 22 13 33 16 26 6 231 81 270 98 17 7 33 13 38 14 4 2 9 4 12 5 3
1 8 3 13 5 4 1 18 6 32 12 86 36 101 42 105 43 3 0 30 11 61 25 31 14 58 25
60 25 1 0 40 17 86 38 46 21 117 54 158 73 41 18 95 45 120 59 25 15 48 27 53
28 9 2 153 74 198 100 19 10 61 34 94 52 108 60 123 69 164 94 22 15 45 26 51
26 5 0 10 5 10 10 0 6 5 10 12 10 7 0 28 10 47 23 20 13 54 35 76 49 169 108
281 183 298 199 12 10 25 19 29 19 5 0 26 13 46 28 20 16 109 82 197 148 171
128 348 270 353 285 2 5 8 9 13 9 8 0 36 23 105 88 19 17 39 32 45 32 5 0 7 4
4 10 -3 5 -1 10 4 10 14 0 104 85 330 310 184 184 214 215 341 360 36 40 73
82 83 92 9 10 17 23 17 28 0 6 4 10 9 10 5 0 28 26 52 57 24 32 51 64 59 73 9
9 29 34 45 55 17 22 32 42 35 45 3 3 28 34 55 70 27 36 55 71 62 78 7 7 13 16
13 20 0 4 14 23 30 42 16 19 30 38 30 42 0 4 6 13 13 20 39 43 357 525 357
542 0 3 13 25 30 49 16 25 30 49 30 55 0 6 3 12 8 14 7 3 45 69 67 115 5 13
13 23 18 23 4 0 7 9 7 19 0 11 3 21 7 23 5 2 21 29 37 61 16 31 33 60 37 63 5
3 9 13 9 23 0 10 7 24 15 31 8 7 15 21 15 31 0 11 3 19 8 19 4 0 14 15 21 33
8 17 40 86 72 152 66 138 91 195 95 213 1 7 9 23 16 35 8 12 22 45 32 72 10
28 27 68 36 90 62 138 246 668 275 791 8 34 54 199 55 199 1 0 3 7 5 16 1 9
13 56 25 105 12 49 23 96 25 104 2 8 19 89 38 180 20 91 38 183 41 205 3 22 7
49 10 60 3 18 11 65 21 135 2 14 7 40 10 58 11 66 14 88 20 142 3 30 8 71 10
90 7 46 12 99 20 190 4 41 8 92 10 112 27 290 27 1029 0 1268 -2 19 -6 71 -10
116 -3 44 -7 89 -9 100 -2 10 -7 48 -11 84 -3 36 -8 76 -10 90 -2 14 -7 45
-10 70 -3 25 -10 72 -15 105 -20 135 -21 137 -46 270 -8 44 -17 91 -20 105
-29 156 -100 446 -155 640 -30 103 -104 340 -116 370 -4 8 -7 17 -8 20 -1 3
-4 12 -7 20 -3 8 -10 31 -17 50 -7 19 -14 42 -16 50 -2 8 -4 16 -5 18 -2 1 -3
5 -4 10 -1 4 -7 17 -14 30 -7 12 -10 22 -6 22 3 0 2 6 -3 13 -5 6 -18 35 -28
62 -9 28 -23 64 -30 80 -7 17 -33 80 -58 140 -25 61 -57 135 -70 165 -14 30
-25 58 -26 62 -3 19 -235 473 -242 476 -5 2 -9 9 -9 16 0 7 -21 49 -47 95 -78
134 -113 195 -120 211 -4 8 -11 20 -15 25 -24 29 -68 102 -68 113 0 6 -4 12
-10 12 -5 0 -10 7 -10 15 0 8 -4 15 -9 15 -5 0 -11 8 -15 18 -6 18 -27 53 -37
62 -4 4 -69 100 -134 199 -23 35 -267 364 -279 377 -6 6 -22 26 -36 44 -33 44
-139 173 -195 237 -78 88 -117 133 -165 186 -76 86 -452 459 -535 532 -37 33
-73 65 -79 70 -6 6 -40 35 -76 65 -36 30 -73 61 -82 70 -34 31 -134 111 -215
173 -34 26 -69 54 -77 63 -9 8 -16 13 -16 9 0 -4 -6 0 -13 7 -8 7 -26 22 -41
33 -16 11 -34 26 -41 33 -8 6 -18 12 -24 12 -6 0 -11 4 -11 8 0 4 -13 16 -30
25 -16 10 -35 23 -43 30 -7 7 -20 17 -29 22 -60 38 -194 131 -196 137 -2 5 -8
8 -13 8 -5 0 -40 20 -77 44 -109 71 -173 110 -252 155 -41 24 -86 51 -100 60
-14 9 -48 27 -75 41 -28 14 -52 28 -55 31 -3 4 -15 9 -27 13 -13 4 -23 12 -23
17 0 5 -6 9 -13 9 -18 0 -75 28 -82 41 -4 5 -11 7 -16 4 -5 -4 -9 -1 -9 4 0 6
-9 11 -19 11 -11 0 -21 3 -23 8 -2 6 -89 52 -108 57 -8 2 -201 94 -242 115
-21 11 -38 17 -38 13 0 -3 -9 2 -21 13 -12 10 -24 18 -28 17 -5 -3 -183 68
-246 97 -11 5 -38 16 -60 24 -22 7 -92 33 -155 56 -139 51 -330 114 -425 141
-190 55 -234 66 -265 73 -11 3 -24 7 -28 10 -5 3 -19 7 -33 9 -13 3 -55 12
-94 21 -64 16 -112 26 -125 28 -3 1 -21 5 -40 10 -45 11 -57 13 -235 48 -168
32 -256 47 -330 55 -27 3 -57 8 -65 10 -8 2 -40 7 -70 10 -30 3 -66 7 -80 10
-14 2 -54 7 -90 10 -36 3 -75 7 -87 9 -11 3 -69 7 -129 11 -60 4 -125 9 -144
11 -42 5 -827 14 -832 9z m1538 -2499 c890 -57 1561 -349 2054 -892 75 -83 93
-106 163 -203 266 -370 450 -816 556 -1346 22 -107 24 -123 41 -230 17 -107
18 -116 25 -175 4 -30 8 -66 10 -80 2 -14 6 -61 9 -105 4 -44 9 -96 11 -115
16 -120 18 -630 19 -3762 l2 -3478 -886 0 -885 0 -1 3333 c0 2923 -3 3510 -19
3667 -7 76 -16 157 -21 190 -11 73 -24 156 -29 180 -3 14 -7 37 -10 52 -11 61
-37 165 -51 209 -8 25 -16 54 -18 65 -7 32 -72 205 -105 275 -150 327 -398
587 -696 728 -132 63 -327 124 -440 137 -27 4 -53 8 -57 10 -14 9 -179 18
-323 19 -210 0 -315 -11 -500 -55 -303 -72 -549 -194 -865 -429 -86 -64 -79
-58 -230 -187 -174 -148 -502 -480 -735 -743 -22 -25 -44 -51 -50 -57 -23 -25
-210 -245 -264 -309 -9 -11 -54 -67 -101 -125 -47 -57 -93 -114 -104 -125 -10
-11 -25 -30 -33 -42 -13 -19 -15 -437 -15 -3408 l0 -3385 -886 0 -887 0 1
5100 c0 2805 3 5102 6 5106 4 3 359 6 789 6 l783 0 2 -38 c1 -38 12 -294 19
-462 2 -46 6 -134 9 -195 6 -119 14 -306 21 -472 2 -55 7 -172 11 -260 4 -88
8 -172 8 -187 1 -16 3 -28 5 -28 2 0 13 12 25 28 11 15 55 65 97 112 41 47 86
98 100 114 31 38 431 439 489 491 25 22 88 76 140 120 52 44 100 85 106 90 54
46 270 205 384 281 271 181 554 322 830 414 52 17 102 33 110 35 176 46 391
90 483 99 41 5 135 16 167 21 14 2 84 7 155 10 72 4 131 8 132 9 5 4 354 -2
449 -8z m5331 -4704 c563 -562 1023 -1025 1023 -1030 0 -4 -470 -477 -1045
-1052 l-1044 -1044 -22 20 c-52 46 -699 697 -699 703 0 3 308 314 685 690
l684 684 -647 647 c-356 356 -665 666 -686 689 l-40 41 360 359 359 360 24
-22 c14 -12 485 -482 1048 -1045z m-11668 703 l354 -354 -39 -42 c-22 -22
-328 -330 -681 -684 -354 -353 -643 -647 -643 -652 0 -5 307 -316 682 -691
l681 -682 -24 -26 c-67 -72 -692 -694 -698 -694 -3 0 -476 470 -1050 1044
-953 953 -1043 1046 -1030 1062 44 54 2072 2074 2082 2074 7 0 171 -160 366
-355z"/>
</g>
</svg>
