<?xml version="1.0" standalone="no"?>
<!DOCTYPE svg PUBLIC "-//W3C//DTD SVG 20010904//EN"
 "http://www.w3.org/TR/2001/REC-SVG-20010904/DTD/svg10.dtd">
<svg version="1.0" xmlns="http://www.w3.org/2000/svg"
 width="2133.000000pt" height="2133.000000pt" viewBox="0 0 2133.000000 2133.000000"
 preserveAspectRatio="xMidYMid meet">
<metadata>
Created by potrace 1.11, written by Peter Selinger 2001-2013
</metadata>
<g transform="translate(0.000000,2133.000000) scale(0.100000,-0.100000)"
fill="#000000" stroke="none">
<path d="M4915 20994 c-267 -27 -413 -50 -604 -99 -986 -249 -1806 -904 -2270
-1815 -583 -1144 -488 -2523 246 -3578 577 -829 1508 -1382 2498 -1482 61 -6
133 -13 162 -16 l52 -5 166 -171 167 -171 192 191 191 190 132 26 c881 175
1661 681 2183 1416 593 837 786 1905 525 2905 -113 433 -311 846 -575 1199
-120 161 -207 260 -372 422 -543 534 -1232 867 -2008 969 -119 16 -586 29
-685 19z"/>
<path d="M14480 19659 c-1355 -82 -2490 -1071 -2759 -2404 -57 -280 -54 -204
-58 -1985 -4 -1674 -2 -1854 33 -2104 154 -1105 789 -2066 1754 -2651 50 -30
118 -69 151 -85 l59 -30 0 -530 0 -530 -679 0 c-856 0 -978 -9 -1251 -96 -325
-103 -579 -259 -825 -508 -319 -322 -508 -713 -564 -1166 -6 -46 -11 -268 -11
-492 l0 -408 -500 0 -500 0 0 2525 c0 2816 5 2604 -70 2760 -68 140 -165 237
-305 305 -158 77 176 71 -3825 68 l-3585 -3 -70 -23 c-254 -85 -428 -290 -465
-547 -8 -58 -10 -863 -8 -2975 3 -2766 4 -2898 22 -2955 69 -230 255 -413 476
-469 50 -13 10 -15 -430 -18 l-485 -3 -57 -28 c-71 -35 -129 -91 -165 -159
l-28 -53 0 -595 0 -595 23 -46 c37 -75 87 -125 160 -161 l66 -33 203 -3 203
-3 0 -1665 0 -1664 832 2 833 3 5 540 5 540 33 67 c57 117 147 174 294 188
206 20 316 129 337 338 16 151 70 236 189 294 l67 33 7080 0 7080 0 67 -33
c119 -58 173 -143 189 -294 21 -209 131 -318 337 -338 147 -14 237 -71 294
-188 l33 -67 5 -540 5 -540 833 -3 832 -2 0 1664 0 1665 203 3 203 3 66 33
c73 36 123 86 160 161 l23 46 0 595 0 595 -28 53 c-36 68 -94 124 -165 159
-56 27 -62 28 -259 31 l-202 4 -4 1086 c-3 973 -5 1098 -21 1192 -73 445 -248
798 -545 1104 -254 260 -531 429 -875 532 -246 74 -390 84 -1218 84 l-678 0 2
512 3 512 115 64 c293 163 545 355 801 611 600 600 935 1289 1057 2171 14 100
16 333 19 1829 3 1493 2 1728 -12 1831 -49 383 -209 706 -485 980 -132 131
-258 221 -425 304 -210 104 -411 159 -637 174 l-103 7 -3 668 -2 667 -1363 -1
c-749 -1 -1418 -5 -1487 -10z m397 -4305 c-3 -3 -12 -4 -19 -1 -8 3 -5 6 6 6
11 1 17 -2 13 -5z m120 -10 c-3 -3 -12 -4 -19 -1 -8 3 -5 6 6 6 11 1 17 -2 13
-5z m696 -1 c-7 -2 -19 -2 -25 0 -7 3 -2 5 12 5 14 0 19 -2 13 -5z m-505 -10
c-10 -2 -28 -2 -40 0 -13 2 -5 4 17 4 22 1 32 -1 23 -4z m330 0 c-10 -2 -28
-2 -40 0 -13 2 -5 4 17 4 22 1 32 -1 23 -4z m-10129 -5693 c293 -83 522 -322
592 -615 18 -76 20 -111 17 -225 -4 -118 -9 -147 -37 -229 -17 -51 -50 -125
-73 -165 -56 -97 -209 -247 -308 -303 -334 -187 -749 -128 -1011 144 -159 164
-239 361 -239 587 0 409 290 752 698 826 79 15 278 4 361 -20z"/>
</g>
</svg>
