<?xml version="1.0" standalone="no"?>
<!DOCTYPE svg PUBLIC "-//W3C//DTD SVG 20010904//EN"
 "http://www.w3.org/TR/2001/REC-SVG-20010904/DTD/svg10.dtd">
<svg version="1.0" xmlns="http://www.w3.org/2000/svg"
 width="2133.000000pt" height="2133.000000pt" viewBox="0 0 2133.000000 2133.000000"
 preserveAspectRatio="xMidYMid meet">
<metadata>
Created by potrace 1.11, written by Peter Selinger 2001-2013
</metadata>
<g transform="translate(0.000000,2133.000000) scale(0.100000,-0.100000)"
fill="#000000" stroke="none">
<path d="M4900 20989 c-223 -22 -272 -29 -425 -60 -227 -45 -490 -126 -678
-208 -26 -11 -51 -21 -55 -23 -24 -7 -225 -110 -322 -166 -179 -102 -366 -235
-546 -387 -138 -117 -369 -362 -481 -510 -73 -96 -99 -134 -166 -236 -115
-177 -245 -423 -292 -554 -10 -27 -22 -54 -26 -60 -9 -13 -94 -265 -114 -340
-35 -128 -68 -280 -81 -362 -3 -21 -7 -45 -9 -53 -2 -8 -7 -42 -10 -75 -4 -33
-8 -71 -11 -85 -22 -137 -22 -599 0 -740 2 -14 7 -54 11 -90 8 -83 60 -346 88
-450 165 -603 465 -1119 907 -1560 335 -336 697 -579 1131 -760 68 -29 129
-53 134 -54 6 -1 15 -4 20 -7 13 -8 252 -82 302 -94 26 -6 145 -33 174 -39 13
-3 35 -7 49 -10 49 -11 76 -15 120 -21 25 -4 59 -8 75 -11 42 -8 86 -12 190
-19 50 -4 94 -8 98 -8 4 -1 85 -79 179 -174 l171 -172 195 194 c125 125 202
195 216 196 32 1 57 6 231 44 181 39 475 142 664 231 62 30 115 54 116 54 12
0 258 145 344 202 657 439 1143 1072 1386 1803 41 122 96 324 110 400 3 17 7
44 10 60 3 17 10 53 15 80 5 28 12 77 16 110 3 33 8 68 10 79 24 130 23 564
-2 781 -91 784 -430 1493 -982 2054 -396 402 -836 679 -1372 864 -242 84 -535
146 -813 173 -85 8 -504 10 -577 3z"/>
<path d="M14587 19664 c-1 -1 -60 -4 -130 -8 -70 -4 -133 -9 -140 -11 -7 -2
-34 -6 -62 -9 -44 -5 -91 -13 -190 -31 -16 -3 -41 -8 -55 -12 -38 -9 -41 -10
-94 -22 -26 -7 -98 -28 -160 -48 -61 -20 -115 -38 -121 -39 -32 -7 -208 -84
-315 -138 -625 -312 -1137 -853 -1410 -1491 -79 -184 -158 -432 -184 -580 -3
-16 -8 -41 -11 -55 -7 -35 -13 -68 -21 -125 -3 -27 -8 -58 -10 -68 -15 -85
-18 -408 -19 -1852 0 -1464 3 -1777 19 -1900 2 -16 7 -57 11 -90 4 -32 9 -68
11 -79 2 -11 6 -36 9 -56 6 -38 12 -70 20 -110 3 -14 7 -36 10 -50 10 -51 47
-197 67 -260 37 -120 90 -275 107 -315 10 -22 31 -71 47 -110 66 -160 198
-401 317 -580 66 -99 69 -102 165 -226 298 -381 692 -716 1105 -943 93 -51
107 -62 108 -85 1 -32 1 -1024 0 -1032 -1 -3 -319 -6 -708 -6 -791 -1 -842 -3
-1018 -40 -38 -8 -80 -17 -93 -19 -13 -3 -76 -22 -141 -43 -498 -164 -910
-517 -1150 -986 -87 -170 -164 -395 -186 -546 -4 -24 -11 -64 -17 -89 -6 -25
-12 -243 -15 -490 -3 -245 -7 -447 -9 -449 -3 -3 -870 -5 -965 -2 l-27 1 0
2533 c0 1392 -3 2548 -6 2567 -27 148 -85 260 -191 365 -95 94 -181 143 -305
176 l-85 22 -3550 0 c-1952 0 -3577 -3 -3610 -7 -146 -15 -280 -81 -390 -191
-99 -99 -159 -215 -186 -356 -9 -49 -12 -737 -12 -2929 0 -1576 3 -2894 7
-2928 15 -140 85 -286 185 -388 92 -94 191 -151 319 -184 66 -17 63 -17 -408
-18 -261 0 -487 -2 -502 -5 -94 -19 -189 -94 -234 -185 l-29 -57 -2 -560 c-2
-533 -2 -563 17 -627 27 -89 93 -163 182 -203 62 -28 67 -29 258 -31 107 -1
198 -2 201 -3 3 0 6 -749 6 -1663 l0 -1663 826 -1 826 -1 3 545 c2 427 6 546
16 550 6 2 10 8 6 13 -11 18 37 97 87 144 66 61 118 83 227 94 50 5 111 19
136 29 24 11 47 18 50 16 3 -2 4 -1 2 2 -3 3 17 25 42 47 26 23 48 45 50 49 2
4 12 29 24 55 13 28 23 78 26 120 3 40 8 73 13 73 5 0 6 7 3 15 -10 24 42 118
89 162 52 49 112 81 170 91 23 4 3217 7 7097 7 l7055 0 62 -29 c73 -33 145
-104 175 -172 11 -26 23 -84 28 -134 10 -104 33 -162 90 -224 60 -65 127 -95
240 -106 117 -13 168 -35 239 -107 98 -100 95 -81 98 -648 1 -269 3 -513 3
-541 l0 -51 825 0 825 0 1 26 c0 14 1 764 2 1666 l2 1639 195 2 c217 2 218 2
286 37 65 33 116 86 150 155 l28 57 2 565 c1 419 -2 577 -11 611 -25 95 -107
183 -205 220 -49 19 -78 21 -251 22 l-196 1 -1 1045 c0 576 -3 1075 -6 1111
-26 271 -90 502 -201 725 -79 157 -106 202 -198 325 -152 202 -383 404 -609
532 -165 94 -403 186 -553 214 -22 4 -42 8 -45 9 -3 1 -27 5 -55 10 -27 4 -59
9 -70 11 -69 13 -290 17 -902 17 -625 0 -693 2 -694 16 -1 20 -1 980 0 1002 1
9 13 21 29 28 51 23 253 143 351 210 421 284 800 677 1066 1105 79 128 219
395 256 489 11 29 27 66 34 82 80 181 196 605 220 804 4 30 8 61 10 70 1 9 6
45 10 80 4 35 9 80 12 100 8 62 10 3442 2 3521 -46 426 -257 824 -581 1095
-273 230 -620 371 -955 391 -54 3 -103 7 -109 9 -8 2 -12 179 -12 642 -1 351
-1 649 -1 663 l-1 25 -1371 0 c-754 0 -1371 -1 -1372 -1z"/>
</g>
</svg>
